<svg xmlns="http://www.w3.org/2000/svg" xmlns:xlink="http://www.w3.org/1999/xlink" viewBox="0 0 150 44.999999" version="1.0"><defs><g/></defs><path fill="#2b4743" d="M 25.050781 22.582031 L 27.308594 22.582031 L 27.308594 27.738281 L 25.050781 27.738281 Z M 25.050781 22.582031 " fill-opacity="1" fill-rule="nonzero"/><path fill="#2b4743" d="M 11.308594 12.03125 L 13.566406 12.03125 L 13.566406 17.183594 L 11.308594 17.183594 Z M 11.308594 12.03125 " fill-opacity="1" fill-rule="nonzero"/><path fill="#2b4743" d="M 25.050781 12.03125 L 27.308594 12.03125 L 27.308594 17.183594 L 25.050781 17.183594 Z M 25.050781 12.03125 " fill-opacity="1" fill-rule="nonzero"/><path fill="#2b4743" d="M 11.308594 22.582031 L 13.566406 22.582031 L 13.566406 27.738281 L 11.308594 27.738281 Z M 11.308594 22.582031 " fill-opacity="1" fill-rule="nonzero"/><path fill="#2b4743" d="M 9.496094 18.75 L 29.128906 18.75 L 29.128906 21.007812 L 9.496094 21.007812 Z M 9.496094 18.75 " fill-opacity="1" fill-rule="nonzero"/><path fill="#2b4743" d="M 18.996094 1.363281 C 8.78125 1.363281 0.480469 9.671875 0.480469 19.878906 C 0.480469 30.085938 8.789062 38.398438 18.996094 38.398438 C 29.203125 38.398438 37.515625 30.085938 37.515625 19.878906 C 37.515625 9.671875 29.210938 1.363281 18.996094 1.363281 Z M 18.996094 36.148438 C 10.027344 36.148438 2.734375 28.847656 2.734375 19.878906 C 2.734375 10.910156 10.027344 3.617188 18.996094 3.617188 C 27.964844 3.617188 35.257812 10.910156 35.257812 19.878906 C 35.257812 28.847656 27.964844 36.148438 18.996094 36.148438 Z M 18.996094 36.148438 " fill-opacity="1" fill-rule="nonzero"/><g fill="#2b4743" fill-opacity="1"><g transform="translate(44.086816, 16.095715)"><g><path d="M 0.671875 0 L 0.671875 -6.9375 L 1.9375 -6.9375 L 1.9375 -4.046875 L 5.046875 -4.046875 L 5.046875 -6.9375 L 6.3125 -6.9375 L 6.3125 0 L 5.046875 0 L 5.046875 -3.015625 L 1.9375 -3.015625 L 1.9375 0 Z M 0.671875 0 "/></g></g></g><g fill="#2b4743" fill-opacity="1"><g transform="translate(55.018334, 16.095715)"><g><path d="M 0.234375 0 L 2.765625 -6.9375 L 4.1875 -6.9375 L 6.71875 0 L 5.375 0 L 4.828125 -1.609375 L 2.125 -1.609375 L 1.5625 0 Z M 2.46875 -2.59375 L 4.484375 -2.59375 L 3.46875 -5.484375 Z M 2.46875 -2.59375 "/></g></g></g><g fill="#2b4743" fill-opacity="1"><g transform="translate(65.900347, 16.095715)"><g><path d="M 0.671875 0 L 0.671875 -6.9375 L 3.234375 -6.9375 C 3.796875 -6.9375 4.253906 -6.84375 4.609375 -6.65625 C 4.972656 -6.46875 5.242188 -6.210938 5.421875 -5.890625 C 5.609375 -5.566406 5.703125 -5.203125 5.703125 -4.796875 C 5.703125 -4.421875 5.613281 -4.070312 5.4375 -3.75 C 5.269531 -3.425781 5.003906 -3.164062 4.640625 -2.96875 C 4.273438 -2.78125 3.804688 -2.6875 3.234375 -2.6875 L 1.9375 -2.6875 L 1.9375 0 Z M 1.9375 -3.71875 L 3.15625 -3.71875 C 3.601562 -3.71875 3.921875 -3.8125 4.109375 -4 C 4.304688 -4.195312 4.40625 -4.460938 4.40625 -4.796875 C 4.40625 -5.140625 4.304688 -5.410156 4.109375 -5.609375 C 3.921875 -5.804688 3.601562 -5.90625 3.15625 -5.90625 L 1.9375 -5.90625 Z M 1.9375 -3.71875 "/></g></g></g><g fill="#2b4743" fill-opacity="1"><g transform="translate(75.851689, 16.095715)"><g><path d="M 0.671875 0 L 0.671875 -6.9375 L 3.234375 -6.9375 C 3.796875 -6.9375 4.253906 -6.84375 4.609375 -6.65625 C 4.972656 -6.46875 5.242188 -6.210938 5.421875 -5.890625 C 5.609375 -5.566406 5.703125 -5.203125 5.703125 -4.796875 C 5.703125 -4.421875 5.613281 -4.070312 5.4375 -3.75 C 5.269531 -3.425781 5.003906 -3.164062 4.640625 -2.96875 C 4.273438 -2.78125 3.804688 -2.6875 3.234375 -2.6875 L 1.9375 -2.6875 L 1.9375 0 Z M 1.9375 -3.71875 L 3.15625 -3.71875 C 3.601562 -3.71875 3.921875 -3.8125 4.109375 -4 C 4.304688 -4.195312 4.40625 -4.460938 4.40625 -4.796875 C 4.40625 -5.140625 4.304688 -5.410156 4.109375 -5.609375 C 3.921875 -5.804688 3.601562 -5.90625 3.15625 -5.90625 L 1.9375 -5.90625 Z M 1.9375 -3.71875 "/></g></g></g><g fill="#2b4743" fill-opacity="1"><g transform="translate(85.803032, 16.095715)"><g><path d="M 2.46875 0 L 2.46875 -2.46875 L 0.140625 -6.9375 L 1.578125 -6.9375 L 3.109375 -3.734375 L 4.640625 -6.9375 L 6.046875 -6.9375 L 3.734375 -2.46875 L 3.734375 0 Z M 2.46875 0 "/></g></g></g><g fill="#2b4743" fill-opacity="1"><g transform="translate(95.932591, 16.095715)"><g/></g></g><g fill="#2b4743" fill-opacity="1"><g transform="translate(102.230554, 16.095715)"><g><path d="M 0.671875 0 L 0.671875 -6.9375 L 5.203125 -6.9375 L 5.203125 -5.90625 L 1.9375 -5.90625 L 1.9375 -4.015625 L 4.90625 -4.015625 L 4.90625 -3.015625 L 1.9375 -3.015625 L 1.9375 -1.015625 L 5.203125 -1.015625 L 5.203125 0 Z M 0.671875 0 "/></g></g></g><g fill="#2b4743" fill-opacity="1"><g transform="translate(111.894777, 16.095715)"><g><path d="M 0.234375 0 L 2.765625 -6.9375 L 4.1875 -6.9375 L 6.71875 0 L 5.375 0 L 4.828125 -1.609375 L 2.125 -1.609375 L 1.5625 0 Z M 2.46875 -2.59375 L 4.484375 -2.59375 L 3.46875 -5.484375 Z M 2.46875 -2.59375 "/></g></g></g><g fill="#2b4743" fill-opacity="1"><g transform="translate(122.776788, 16.095715)"><g><path d="M 0.671875 0 L 0.671875 -6.9375 L 3.21875 -6.9375 C 3.769531 -6.9375 4.222656 -6.84375 4.578125 -6.65625 C 4.941406 -6.46875 5.210938 -6.210938 5.390625 -5.890625 C 5.578125 -5.566406 5.671875 -5.210938 5.671875 -4.828125 C 5.671875 -4.398438 5.554688 -4.007812 5.328125 -3.65625 C 5.109375 -3.3125 4.765625 -3.0625 4.296875 -2.90625 L 5.734375 0 L 4.28125 0 L 2.984375 -2.734375 L 1.9375 -2.734375 L 1.9375 0 Z M 1.9375 -3.671875 L 3.140625 -3.671875 C 3.566406 -3.671875 3.878906 -3.769531 4.078125 -3.96875 C 4.273438 -4.175781 4.375 -4.445312 4.375 -4.78125 C 4.375 -5.113281 4.273438 -5.378906 4.078125 -5.578125 C 3.878906 -5.773438 3.5625 -5.875 3.125 -5.875 L 1.9375 -5.875 Z M 1.9375 -3.671875 "/></g></g></g><g fill="#2b4743" fill-opacity="1"><g transform="translate(132.886538, 16.095715)"><g><path d="M 2.28125 0 L 2.28125 -5.90625 L 0.265625 -5.90625 L 0.265625 -6.9375 L 5.59375 -6.9375 L 5.59375 -5.90625 L 3.5625 -5.90625 L 3.5625 0 Z M 2.28125 0 "/></g></g></g><g fill="#2b4743" fill-opacity="1"><g transform="translate(142.67946, 16.095715)"><g><path d="M 0.671875 0 L 0.671875 -6.9375 L 1.9375 -6.9375 L 1.9375 -4.046875 L 5.046875 -4.046875 L 5.046875 -6.9375 L 6.3125 -6.9375 L 6.3125 0 L 5.046875 0 L 5.046875 -3.015625 L 1.9375 -3.015625 L 1.9375 0 Z M 0.671875 0 "/></g></g></g><g fill="#2b4743" fill-opacity="1"><g transform="translate(49.234952, 28.567428)"><g><path d="M 0.1875 0 L 2.25 -5.625 L 3.40625 -5.625 L 5.46875 0 L 4.375 0 L 3.921875 -1.296875 L 1.71875 -1.296875 L 1.265625 0 Z M 2 -2.109375 L 3.640625 -2.109375 L 2.8125 -4.453125 Z M 2 -2.109375 "/></g></g></g><g fill="#2b4743" fill-opacity="1"><g transform="translate(58.076257, 28.567428)"><g><path d="M 0.546875 0 L 0.546875 -5.625 L 2.609375 -5.625 C 3.066406 -5.625 3.441406 -5.546875 3.734375 -5.390625 C 4.023438 -5.242188 4.242188 -5.039062 4.390625 -4.78125 C 4.535156 -4.519531 4.609375 -4.234375 4.609375 -3.921875 C 4.609375 -3.578125 4.515625 -3.257812 4.328125 -2.96875 C 4.148438 -2.6875 3.875 -2.484375 3.5 -2.359375 L 4.65625 0 L 3.46875 0 L 2.4375 -2.21875 L 1.578125 -2.21875 L 1.578125 0 Z M 1.578125 -2.984375 L 2.546875 -2.984375 C 2.890625 -2.984375 3.140625 -3.0625 3.296875 -3.21875 C 3.460938 -3.382812 3.546875 -3.609375 3.546875 -3.890625 C 3.546875 -4.148438 3.46875 -4.359375 3.3125 -4.515625 C 3.15625 -4.679688 2.898438 -4.765625 2.546875 -4.765625 L 1.578125 -4.765625 Z M 1.578125 -2.984375 "/></g></g></g><g fill="#2b4743" fill-opacity="1"><g transform="translate(66.290146, 28.567428)"><g><path d="M 3.09375 0.09375 C 2.53125 0.09375 2.039062 -0.0234375 1.625 -0.265625 C 1.21875 -0.515625 0.90625 -0.859375 0.6875 -1.296875 C 0.46875 -1.734375 0.359375 -2.238281 0.359375 -2.8125 C 0.359375 -3.382812 0.46875 -3.890625 0.6875 -4.328125 C 0.90625 -4.765625 1.21875 -5.109375 1.625 -5.359375 C 2.039062 -5.609375 2.53125 -5.734375 3.09375 -5.734375 C 3.769531 -5.734375 4.320312 -5.5625 4.75 -5.21875 C 5.1875 -4.882812 5.457031 -4.414062 5.5625 -3.8125 L 4.4375 -3.8125 C 4.363281 -4.113281 4.210938 -4.351562 3.984375 -4.53125 C 3.753906 -4.707031 3.453125 -4.796875 3.078125 -4.796875 C 2.554688 -4.796875 2.148438 -4.617188 1.859375 -4.265625 C 1.566406 -3.910156 1.421875 -3.425781 1.421875 -2.8125 C 1.421875 -2.195312 1.566406 -1.710938 1.859375 -1.359375 C 2.148438 -1.003906 2.554688 -0.828125 3.078125 -0.828125 C 3.453125 -0.828125 3.753906 -0.90625 3.984375 -1.0625 C 4.210938 -1.226562 4.363281 -1.457031 4.4375 -1.75 L 5.5625 -1.75 C 5.457031 -1.175781 5.1875 -0.722656 4.75 -0.390625 C 4.320312 -0.0664062 3.769531 0.09375 3.09375 0.09375 Z M 3.09375 0.09375 "/></g></g></g><g fill="#2b4743" fill-opacity="1"><g transform="translate(75.421029, 28.567428)"><g><path d="M 0.546875 0 L 0.546875 -5.625 L 1.578125 -5.625 L 1.578125 -3.296875 L 4.109375 -3.296875 L 4.109375 -5.625 L 5.140625 -5.625 L 5.140625 0 L 4.109375 0 L 4.109375 -2.453125 L 1.578125 -2.453125 L 1.578125 0 Z M 0.546875 0 "/></g></g></g><g fill="#2b4743" fill-opacity="1"><g transform="translate(84.302551, 28.567428)"><g><path d="M 0.546875 0 L 0.546875 -5.625 L 1.578125 -5.625 L 1.578125 0 Z M 0.546875 0 "/></g></g></g><g fill="#2b4743" fill-opacity="1"><g transform="translate(89.628705, 28.567428)"><g><path d="M 1.859375 0 L 1.859375 -4.796875 L 0.21875 -4.796875 L 0.21875 -5.625 L 4.53125 -5.625 L 4.53125 -4.796875 L 2.890625 -4.796875 L 2.890625 0 Z M 1.859375 0 "/></g></g></g><g fill="#2b4743" fill-opacity="1"><g transform="translate(97.585187, 28.567428)"><g><path d="M 0.546875 0 L 0.546875 -5.625 L 4.21875 -5.625 L 4.21875 -4.796875 L 1.578125 -4.796875 L 1.578125 -3.265625 L 3.984375 -3.265625 L 3.984375 -2.453125 L 1.578125 -2.453125 L 1.578125 -0.828125 L 4.21875 -0.828125 L 4.21875 0 Z M 0.546875 0 "/></g></g></g><g fill="#2b4743" fill-opacity="1"><g transform="translate(105.4371, 28.567428)"><g><path d="M 3.09375 0.09375 C 2.53125 0.09375 2.039062 -0.0234375 1.625 -0.265625 C 1.21875 -0.515625 0.90625 -0.859375 0.6875 -1.296875 C 0.46875 -1.734375 0.359375 -2.238281 0.359375 -2.8125 C 0.359375 -3.382812 0.46875 -3.890625 0.6875 -4.328125 C 0.90625 -4.765625 1.21875 -5.109375 1.625 -5.359375 C 2.039062 -5.609375 2.53125 -5.734375 3.09375 -5.734375 C 3.769531 -5.734375 4.320312 -5.5625 4.75 -5.21875 C 5.1875 -4.882812 5.457031 -4.414062 5.5625 -3.8125 L 4.4375 -3.8125 C 4.363281 -4.113281 4.210938 -4.351562 3.984375 -4.53125 C 3.753906 -4.707031 3.453125 -4.796875 3.078125 -4.796875 C 2.554688 -4.796875 2.148438 -4.617188 1.859375 -4.265625 C 1.566406 -3.910156 1.421875 -3.425781 1.421875 -2.8125 C 1.421875 -2.195312 1.566406 -1.710938 1.859375 -1.359375 C 2.148438 -1.003906 2.554688 -0.828125 3.078125 -0.828125 C 3.453125 -0.828125 3.753906 -0.90625 3.984375 -1.0625 C 4.210938 -1.226562 4.363281 -1.457031 4.4375 -1.75 L 5.5625 -1.75 C 5.457031 -1.175781 5.1875 -0.722656 4.75 -0.390625 C 4.320312 -0.0664062 3.769531 0.09375 3.09375 0.09375 Z M 3.09375 0.09375 "/></g></g></g><g fill="#2b4743" fill-opacity="1"><g transform="translate(114.567984, 28.567428)"><g><path d="M 1.859375 0 L 1.859375 -4.796875 L 0.21875 -4.796875 L 0.21875 -5.625 L 4.53125 -5.625 L 4.53125 -4.796875 L 2.890625 -4.796875 L 2.890625 0 Z M 1.859375 0 "/></g></g></g><g fill="#2b4743" fill-opacity="1"><g transform="translate(122.52447, 28.567428)"><g><path d="M 2.71875 0.09375 C 2.300781 0.09375 1.925781 0.015625 1.59375 -0.140625 C 1.269531 -0.304688 1.007812 -0.554688 0.8125 -0.890625 C 0.613281 -1.222656 0.515625 -1.644531 0.515625 -2.15625 L 0.515625 -5.625 L 1.546875 -5.625 L 1.546875 -2.15625 C 1.546875 -1.707031 1.648438 -1.375 1.859375 -1.15625 C 2.078125 -0.945312 2.375 -0.84375 2.75 -0.84375 C 3.113281 -0.84375 3.398438 -0.945312 3.609375 -1.15625 C 3.828125 -1.375 3.9375 -1.707031 3.9375 -2.15625 L 3.9375 -5.625 L 4.96875 -5.625 L 4.96875 -2.15625 C 4.96875 -1.644531 4.863281 -1.222656 4.65625 -0.890625 C 4.457031 -0.554688 4.1875 -0.304688 3.84375 -0.140625 C 3.507812 0.015625 3.132812 0.09375 2.71875 0.09375 Z M 2.71875 0.09375 "/></g></g></g><g fill="#2b4743" fill-opacity="1"><g transform="translate(131.204902, 28.567428)"><g><path d="M 0.546875 0 L 0.546875 -5.625 L 2.609375 -5.625 C 3.066406 -5.625 3.441406 -5.546875 3.734375 -5.390625 C 4.023438 -5.242188 4.242188 -5.039062 4.390625 -4.78125 C 4.535156 -4.519531 4.609375 -4.234375 4.609375 -3.921875 C 4.609375 -3.578125 4.515625 -3.257812 4.328125 -2.96875 C 4.148438 -2.6875 3.875 -2.484375 3.5 -2.359375 L 4.65625 0 L 3.46875 0 L 2.4375 -2.21875 L 1.578125 -2.21875 L 1.578125 0 Z M 1.578125 -2.984375 L 2.546875 -2.984375 C 2.890625 -2.984375 3.140625 -3.0625 3.296875 -3.21875 C 3.460938 -3.382812 3.546875 -3.609375 3.546875 -3.890625 C 3.546875 -4.148438 3.46875 -4.359375 3.3125 -4.515625 C 3.15625 -4.679688 2.898438 -4.765625 2.546875 -4.765625 L 1.578125 -4.765625 Z M 1.578125 -2.984375 "/></g></g></g><g fill="#2b4743" fill-opacity="1"><g transform="translate(139.418794, 28.567428)"><g><path d="M 0.546875 0 L 0.546875 -5.625 L 4.21875 -5.625 L 4.21875 -4.796875 L 1.578125 -4.796875 L 1.578125 -3.265625 L 3.984375 -3.265625 L 3.984375 -2.453125 L 1.578125 -2.453125 L 1.578125 -0.828125 L 4.21875 -0.828125 L 4.21875 0 Z M 0.546875 0 "/></g></g></g></svg>