<svg xmlns="http://www.w3.org/2000/svg" xmlns:xlink="http://www.w3.org/1999/xlink" width="500" zoomAndPan="magnify" viewBox="0 0 375 374.999991" height="500" preserveAspectRatio="xMidYMid meet" version="1.0"><defs><g/></defs><path fill="#2b4743" d="M 43.816406 38.511719 L 47.464844 38.511719 L 47.464844 46.839844 L 43.816406 46.839844 Z M 43.816406 38.511719 " fill-opacity="1" fill-rule="nonzero"/><path fill="#2b4743" d="M 21.609375 21.460938 L 25.257812 21.460938 L 25.257812 29.789062 L 21.609375 29.789062 Z M 21.609375 21.460938 " fill-opacity="1" fill-rule="nonzero"/><path fill="#2b4743" d="M 43.816406 21.460938 L 47.464844 21.460938 L 47.464844 29.789062 L 43.816406 29.789062 Z M 43.816406 21.460938 " fill-opacity="1" fill-rule="nonzero"/><path fill="#2b4743" d="M 21.609375 38.511719 L 25.257812 38.511719 L 25.257812 46.839844 L 21.609375 46.839844 Z M 21.609375 38.511719 " fill-opacity="1" fill-rule="nonzero"/><path fill="#2b4743" d="M 18.683594 32.320312 L 50.402344 32.320312 L 50.402344 35.964844 L 18.683594 35.964844 Z M 18.683594 32.320312 " fill-opacity="1" fill-rule="nonzero"/><path fill="#2b4743" d="M 34.03125 4.21875 C 17.527344 4.21875 4.109375 17.648438 4.109375 34.140625 C 4.109375 50.632812 17.539062 64.066406 34.03125 64.066406 C 50.527344 64.066406 63.957031 50.632812 63.957031 34.140625 C 63.957031 17.648438 50.539062 4.21875 34.03125 4.21875 Z M 34.03125 60.433594 C 19.539062 60.433594 7.757812 48.632812 7.757812 34.140625 C 7.757812 19.648438 19.539062 7.867188 34.03125 7.867188 C 48.527344 7.867188 60.308594 19.648438 60.308594 34.140625 C 60.308594 48.632812 48.527344 60.433594 34.03125 60.433594 Z M 34.03125 60.433594 " fill-opacity="1" fill-rule="nonzero"/><g fill="#2b4743" fill-opacity="1"><g transform="translate(74.564611, 28.022342)"><g><path d="M 1.09375 0 L 1.09375 -11.203125 L 3.140625 -11.203125 L 3.140625 -6.546875 L 8.15625 -6.546875 L 8.15625 -11.203125 L 10.203125 -11.203125 L 10.203125 0 L 8.15625 0 L 8.15625 -4.875 L 3.140625 -4.875 L 3.140625 0 Z M 1.09375 0 "/></g></g></g><g fill="#2b4743" fill-opacity="1"><g transform="translate(92.226132, 28.022342)"><g><path d="M 0.375 0 L 4.46875 -11.203125 L 6.765625 -11.203125 L 10.859375 0 L 8.6875 0 L 7.796875 -2.59375 L 3.421875 -2.59375 L 2.515625 0 Z M 3.984375 -4.1875 L 7.234375 -4.1875 L 5.59375 -8.84375 Z M 3.984375 -4.1875 "/></g></g></g><g fill="#2b4743" fill-opacity="1"><g transform="translate(109.807671, 28.022342)"><g><path d="M 1.09375 0 L 1.09375 -11.203125 L 5.234375 -11.203125 C 6.128906 -11.203125 6.867188 -11.050781 7.453125 -10.75 C 8.046875 -10.445312 8.484375 -10.035156 8.765625 -9.515625 C 9.054688 -8.992188 9.203125 -8.410156 9.203125 -7.765625 C 9.203125 -7.140625 9.0625 -6.566406 8.78125 -6.046875 C 8.507812 -5.535156 8.078125 -5.125 7.484375 -4.8125 C 6.898438 -4.5 6.148438 -4.34375 5.234375 -4.34375 L 3.140625 -4.34375 L 3.140625 0 Z M 3.140625 -6 L 5.109375 -6 C 5.816406 -6 6.328125 -6.15625 6.640625 -6.46875 C 6.960938 -6.78125 7.125 -7.210938 7.125 -7.765625 C 7.125 -8.316406 6.960938 -8.75 6.640625 -9.0625 C 6.328125 -9.375 5.816406 -9.53125 5.109375 -9.53125 L 3.140625 -9.53125 Z M 3.140625 -6 "/></g></g></g><g fill="#2b4743" fill-opacity="1"><g transform="translate(125.885569, 28.022342)"><g><path d="M 1.09375 0 L 1.09375 -11.203125 L 5.234375 -11.203125 C 6.128906 -11.203125 6.867188 -11.050781 7.453125 -10.75 C 8.046875 -10.445312 8.484375 -10.035156 8.765625 -9.515625 C 9.054688 -8.992188 9.203125 -8.410156 9.203125 -7.765625 C 9.203125 -7.140625 9.0625 -6.566406 8.78125 -6.046875 C 8.507812 -5.535156 8.078125 -5.125 7.484375 -4.8125 C 6.898438 -4.5 6.148438 -4.34375 5.234375 -4.34375 L 3.140625 -4.34375 L 3.140625 0 Z M 3.140625 -6 L 5.109375 -6 C 5.816406 -6 6.328125 -6.15625 6.640625 -6.46875 C 6.960938 -6.78125 7.125 -7.210938 7.125 -7.765625 C 7.125 -8.316406 6.960938 -8.75 6.640625 -9.0625 C 6.328125 -9.375 5.816406 -9.53125 5.109375 -9.53125 L 3.140625 -9.53125 Z M 3.140625 -6 "/></g></g></g><g fill="#2b4743" fill-opacity="1"><g transform="translate(141.96347, 28.022342)"><g><path d="M 3.984375 0 L 3.984375 -3.984375 L 0.21875 -11.203125 L 2.546875 -11.203125 L 5.03125 -6.03125 L 7.484375 -11.203125 L 9.78125 -11.203125 L 6.03125 -3.984375 L 6.03125 0 Z M 3.984375 0 "/></g></g></g><g fill="#2b4743" fill-opacity="1"><g transform="translate(158.329304, 28.022342)"><g/></g></g><g fill="#2b4743" fill-opacity="1"><g transform="translate(168.504617, 28.022342)"><g><path d="M 1.09375 0 L 1.09375 -11.203125 L 8.40625 -11.203125 L 8.40625 -9.546875 L 3.140625 -9.546875 L 3.140625 -6.484375 L 7.921875 -6.484375 L 7.921875 -4.875 L 3.140625 -4.875 L 3.140625 -1.640625 L 8.40625 -1.640625 L 8.40625 0 Z M 1.09375 0 "/></g></g></g><g fill="#2b4743" fill-opacity="1"><g transform="translate(184.118632, 28.022342)"><g><path d="M 0.375 0 L 4.46875 -11.203125 L 6.765625 -11.203125 L 10.859375 0 L 8.6875 0 L 7.796875 -2.59375 L 3.421875 -2.59375 L 2.515625 0 Z M 3.984375 -4.1875 L 7.234375 -4.1875 L 5.59375 -8.84375 Z M 3.984375 -4.1875 "/></g></g></g><g fill="#2b4743" fill-opacity="1"><g transform="translate(201.700166, 28.022342)"><g><path d="M 1.09375 0 L 1.09375 -11.203125 L 5.203125 -11.203125 C 6.097656 -11.203125 6.832031 -11.046875 7.40625 -10.734375 C 7.988281 -10.429688 8.425781 -10.019531 8.71875 -9.5 C 9.007812 -8.988281 9.15625 -8.421875 9.15625 -7.796875 C 9.15625 -7.109375 8.972656 -6.484375 8.609375 -5.921875 C 8.253906 -5.359375 7.695312 -4.945312 6.9375 -4.6875 L 9.265625 0 L 6.90625 0 L 4.828125 -4.421875 L 3.140625 -4.421875 L 3.140625 0 Z M 3.140625 -5.921875 L 5.078125 -5.921875 C 5.753906 -5.921875 6.253906 -6.082031 6.578125 -6.40625 C 6.898438 -6.738281 7.0625 -7.179688 7.0625 -7.734375 C 7.0625 -8.265625 6.898438 -8.6875 6.578125 -9 C 6.265625 -9.320312 5.757812 -9.484375 5.0625 -9.484375 L 3.140625 -9.484375 Z M 3.140625 -5.921875 "/></g></g></g><g fill="#2b4743" fill-opacity="1"><g transform="translate(218.033996, 28.022342)"><g><path d="M 3.703125 0 L 3.703125 -9.546875 L 0.4375 -9.546875 L 0.4375 -11.203125 L 9.03125 -11.203125 L 9.03125 -9.546875 L 5.75 -9.546875 L 5.75 0 Z M 3.703125 0 "/></g></g></g><g fill="#2b4743" fill-opacity="1"><g transform="translate(233.855944, 28.022342)"><g><path d="M 1.09375 0 L 1.09375 -11.203125 L 3.140625 -11.203125 L 3.140625 -6.546875 L 8.15625 -6.546875 L 8.15625 -11.203125 L 10.203125 -11.203125 L 10.203125 0 L 8.15625 0 L 8.15625 -4.875 L 3.140625 -4.875 L 3.140625 0 Z M 1.09375 0 "/></g></g></g><g fill="#2b4743" fill-opacity="1"><g transform="translate(82.882214, 48.172321)"><g><path d="M 0.296875 0 L 3.625 -9.09375 L 5.5 -9.09375 L 8.828125 0 L 7.0625 0 L 6.328125 -2.109375 L 2.78125 -2.109375 L 2.046875 0 Z M 3.234375 -3.40625 L 5.875 -3.40625 L 4.546875 -7.1875 Z M 3.234375 -3.40625 "/></g></g></g><g fill="#2b4743" fill-opacity="1"><g transform="translate(97.166679, 48.172321)"><g><path d="M 0.890625 0 L 0.890625 -9.09375 L 4.21875 -9.09375 C 4.945312 -9.09375 5.546875 -8.96875 6.015625 -8.71875 C 6.492188 -8.476562 6.847656 -8.144531 7.078125 -7.71875 C 7.316406 -7.300781 7.4375 -6.835938 7.4375 -6.328125 C 7.4375 -5.773438 7.289062 -5.269531 7 -4.8125 C 6.707031 -4.351562 6.253906 -4.019531 5.640625 -3.8125 L 7.53125 0 L 5.609375 0 L 3.921875 -3.59375 L 2.546875 -3.59375 L 2.546875 0 Z M 2.546875 -4.8125 L 4.125 -4.8125 C 4.675781 -4.8125 5.082031 -4.941406 5.34375 -5.203125 C 5.601562 -5.472656 5.734375 -5.832031 5.734375 -6.28125 C 5.734375 -6.707031 5.601562 -7.050781 5.34375 -7.3125 C 5.09375 -7.570312 4.679688 -7.703125 4.109375 -7.703125 L 2.546875 -7.703125 Z M 2.546875 -4.8125 "/></g></g></g><g fill="#2b4743" fill-opacity="1"><g transform="translate(110.43746, 48.172321)"><g><path d="M 5 0.15625 C 4.082031 0.15625 3.296875 -0.0390625 2.640625 -0.4375 C 1.984375 -0.832031 1.472656 -1.378906 1.109375 -2.078125 C 0.753906 -2.785156 0.578125 -3.601562 0.578125 -4.53125 C 0.578125 -5.457031 0.753906 -6.273438 1.109375 -6.984375 C 1.472656 -7.703125 1.984375 -8.257812 2.640625 -8.65625 C 3.296875 -9.050781 4.082031 -9.25 5 -9.25 C 6.09375 -9.25 6.988281 -8.976562 7.6875 -8.4375 C 8.382812 -7.894531 8.820312 -7.132812 9 -6.15625 L 7.15625 -6.15625 C 7.050781 -6.65625 6.8125 -7.046875 6.4375 -7.328125 C 6.070312 -7.609375 5.585938 -7.75 4.984375 -7.75 C 4.140625 -7.75 3.476562 -7.460938 3 -6.890625 C 2.519531 -6.316406 2.28125 -5.53125 2.28125 -4.53125 C 2.28125 -3.539062 2.519531 -2.757812 3 -2.1875 C 3.476562 -1.625 4.140625 -1.34375 4.984375 -1.34375 C 5.585938 -1.34375 6.070312 -1.472656 6.4375 -1.734375 C 6.8125 -1.992188 7.050781 -2.359375 7.15625 -2.828125 L 9 -2.828125 C 8.820312 -1.898438 8.382812 -1.171875 7.6875 -0.640625 C 6.988281 -0.109375 6.09375 0.15625 5 0.15625 Z M 5 0.15625 "/></g></g></g><g fill="#2b4743" fill-opacity="1"><g transform="translate(125.189783, 48.172321)"><g><path d="M 0.890625 0 L 0.890625 -9.09375 L 2.546875 -9.09375 L 2.546875 -5.3125 L 6.625 -5.3125 L 6.625 -9.09375 L 8.296875 -9.09375 L 8.296875 0 L 6.625 0 L 6.625 -3.96875 L 2.546875 -3.96875 L 2.546875 0 Z M 0.890625 0 "/></g></g></g><g fill="#2b4743" fill-opacity="1"><g transform="translate(139.539225, 48.172321)"><g><path d="M 0.890625 0 L 0.890625 -9.09375 L 2.546875 -9.09375 L 2.546875 0 Z M 0.890625 0 "/></g></g></g><g fill="#2b4743" fill-opacity="1"><g transform="translate(148.144432, 48.172321)"><g><path d="M 3 0 L 3 -7.765625 L 0.34375 -7.765625 L 0.34375 -9.09375 L 7.328125 -9.09375 L 7.328125 -7.765625 L 4.671875 -7.765625 L 4.671875 0 Z M 3 0 "/></g></g></g><g fill="#2b4743" fill-opacity="1"><g transform="translate(160.999334, 48.172321)"><g><path d="M 0.890625 0 L 0.890625 -9.09375 L 6.828125 -9.09375 L 6.828125 -7.765625 L 2.546875 -7.765625 L 2.546875 -5.265625 L 6.4375 -5.265625 L 6.4375 -3.96875 L 2.546875 -3.96875 L 2.546875 -1.34375 L 6.828125 -1.34375 L 6.828125 0 Z M 0.890625 0 "/></g></g></g><g fill="#2b4743" fill-opacity="1"><g transform="translate(173.685286, 48.172321)"><g><path d="M 5 0.15625 C 4.082031 0.15625 3.296875 -0.0390625 2.640625 -0.4375 C 1.984375 -0.832031 1.472656 -1.378906 1.109375 -2.078125 C 0.753906 -2.785156 0.578125 -3.601562 0.578125 -4.53125 C 0.578125 -5.457031 0.753906 -6.273438 1.109375 -6.984375 C 1.472656 -7.703125 1.984375 -8.257812 2.640625 -8.65625 C 3.296875 -9.050781 4.082031 -9.25 5 -9.25 C 6.09375 -9.25 6.988281 -8.976562 7.6875 -8.4375 C 8.382812 -7.894531 8.820312 -7.132812 9 -6.15625 L 7.15625 -6.15625 C 7.050781 -6.65625 6.8125 -7.046875 6.4375 -7.328125 C 6.070312 -7.609375 5.585938 -7.75 4.984375 -7.75 C 4.140625 -7.75 3.476562 -7.460938 3 -6.890625 C 2.519531 -6.316406 2.28125 -5.53125 2.28125 -4.53125 C 2.28125 -3.539062 2.519531 -2.757812 3 -2.1875 C 3.476562 -1.625 4.140625 -1.34375 4.984375 -1.34375 C 5.585938 -1.34375 6.070312 -1.472656 6.4375 -1.734375 C 6.8125 -1.992188 7.050781 -2.359375 7.15625 -2.828125 L 9 -2.828125 C 8.820312 -1.898438 8.382812 -1.171875 7.6875 -0.640625 C 6.988281 -0.109375 6.09375 0.15625 5 0.15625 Z M 5 0.15625 "/></g></g></g><g fill="#2b4743" fill-opacity="1"><g transform="translate(188.437611, 48.172321)"><g><path d="M 3 0 L 3 -7.765625 L 0.34375 -7.765625 L 0.34375 -9.09375 L 7.328125 -9.09375 L 7.328125 -7.765625 L 4.671875 -7.765625 L 4.671875 0 Z M 3 0 "/></g></g></g><g fill="#2b4743" fill-opacity="1"><g transform="translate(201.292518, 48.172321)"><g><path d="M 4.390625 0.15625 C 3.722656 0.15625 3.117188 0.0234375 2.578125 -0.234375 C 2.046875 -0.503906 1.617188 -0.90625 1.296875 -1.4375 C 0.984375 -1.976562 0.828125 -2.660156 0.828125 -3.484375 L 0.828125 -9.09375 L 2.5 -9.09375 L 2.5 -3.46875 C 2.5 -2.757812 2.664062 -2.226562 3 -1.875 C 3.34375 -1.53125 3.820312 -1.359375 4.4375 -1.359375 C 5.03125 -1.359375 5.5 -1.53125 5.84375 -1.875 C 6.195312 -2.226562 6.375 -2.757812 6.375 -3.46875 L 6.375 -9.09375 L 8.03125 -9.09375 L 8.03125 -3.484375 C 8.03125 -2.660156 7.863281 -1.976562 7.53125 -1.4375 C 7.207031 -0.90625 6.769531 -0.503906 6.21875 -0.234375 C 5.664062 0.0234375 5.054688 0.15625 4.390625 0.15625 Z M 4.390625 0.15625 "/></g></g></g><g fill="#2b4743" fill-opacity="1"><g transform="translate(215.317069, 48.172321)"><g><path d="M 0.890625 0 L 0.890625 -9.09375 L 4.21875 -9.09375 C 4.945312 -9.09375 5.546875 -8.96875 6.015625 -8.71875 C 6.492188 -8.476562 6.847656 -8.144531 7.078125 -7.71875 C 7.316406 -7.300781 7.4375 -6.835938 7.4375 -6.328125 C 7.4375 -5.773438 7.289062 -5.269531 7 -4.8125 C 6.707031 -4.351562 6.253906 -4.019531 5.640625 -3.8125 L 7.53125 0 L 5.609375 0 L 3.921875 -3.59375 L 2.546875 -3.59375 L 2.546875 0 Z M 2.546875 -4.8125 L 4.125 -4.8125 C 4.675781 -4.8125 5.082031 -4.941406 5.34375 -5.203125 C 5.601562 -5.472656 5.734375 -5.832031 5.734375 -6.28125 C 5.734375 -6.707031 5.601562 -7.050781 5.34375 -7.3125 C 5.09375 -7.570312 4.679688 -7.703125 4.109375 -7.703125 L 2.546875 -7.703125 Z M 2.546875 -4.8125 "/></g></g></g><g fill="#2b4743" fill-opacity="1"><g transform="translate(228.587855, 48.172321)"><g><path d="M 0.890625 0 L 0.890625 -9.09375 L 6.828125 -9.09375 L 6.828125 -7.765625 L 2.546875 -7.765625 L 2.546875 -5.265625 L 6.4375 -5.265625 L 6.4375 -3.96875 L 2.546875 -3.96875 L 2.546875 -1.34375 L 6.828125 -1.34375 L 6.828125 0 Z M 0.890625 0 "/></g></g></g></svg>