<svg xmlns="http://www.w3.org/2000/svg" xmlns:xlink="http://www.w3.org/1999/xlink" width="500" zoomAndPan="magnify" viewBox="0 0 375 374.999991" height="500" preserveAspectRatio="xMidYMid meet" version="1.0"><defs><g/></defs><path fill="#2b4743" d="M 197.292969 172.464844 L 200.941406 172.464844 L 200.941406 180.792969 L 197.292969 180.792969 Z M 197.292969 172.464844 " fill-opacity="1" fill-rule="nonzero"/><path fill="#2b4743" d="M 175.085938 155.414062 L 178.734375 155.414062 L 178.734375 163.742188 L 175.085938 163.742188 Z M 175.085938 155.414062 " fill-opacity="1" fill-rule="nonzero"/><path fill="#2b4743" d="M 197.292969 155.414062 L 200.941406 155.414062 L 200.941406 163.742188 L 197.292969 163.742188 Z M 197.292969 155.414062 " fill-opacity="1" fill-rule="nonzero"/><path fill="#2b4743" d="M 175.085938 172.464844 L 178.734375 172.464844 L 178.734375 180.792969 L 175.085938 180.792969 Z M 175.085938 172.464844 " fill-opacity="1" fill-rule="nonzero"/><path fill="#2b4743" d="M 172.160156 166.273438 L 203.882812 166.273438 L 203.882812 169.921875 L 172.160156 169.921875 Z M 172.160156 166.273438 " fill-opacity="1" fill-rule="nonzero"/><path fill="#2b4743" d="M 187.511719 138.171875 C 171.003906 138.171875 157.585938 151.605469 157.585938 168.097656 C 157.585938 184.589844 171.019531 198.019531 187.511719 198.019531 C 204.003906 198.019531 217.433594 184.589844 217.433594 168.097656 C 217.433594 151.605469 204.015625 138.171875 187.511719 138.171875 Z M 187.511719 194.386719 C 173.019531 194.386719 161.234375 182.589844 161.234375 168.097656 C 161.234375 153.605469 173.019531 141.820312 187.511719 141.820312 C 202.003906 141.820312 213.789062 153.605469 213.789062 168.097656 C 213.789062 182.589844 202.003906 194.386719 187.511719 194.386719 Z M 187.511719 194.386719 " fill-opacity="1" fill-rule="nonzero"/><g fill="#2b4743" fill-opacity="1"><g transform="translate(97.378567, 223.834862)"><g><path d="M 1.21875 0 L 1.21875 -12.59375 L 3.53125 -12.59375 L 3.53125 -7.359375 L 9.1875 -7.359375 L 9.1875 -12.59375 L 11.484375 -12.59375 L 11.484375 0 L 9.1875 0 L 9.1875 -5.484375 L 3.53125 -5.484375 L 3.53125 0 Z M 1.21875 0 "/></g></g></g><g fill="#2b4743" fill-opacity="1"><g transform="translate(117.25074, 223.834862)"><g><path d="M 0.40625 0 L 5.015625 -12.59375 L 7.609375 -12.59375 L 12.21875 0 L 9.78125 0 L 8.765625 -2.921875 L 3.859375 -2.921875 L 2.828125 0 Z M 4.484375 -4.71875 L 8.140625 -4.71875 L 6.296875 -9.953125 Z M 4.484375 -4.71875 "/></g></g></g><g fill="#2b4743" fill-opacity="1"><g transform="translate(137.032906, 223.834862)"><g><path d="M 1.21875 0 L 1.21875 -12.59375 L 5.890625 -12.59375 C 6.890625 -12.59375 7.71875 -12.425781 8.375 -12.09375 C 9.039062 -11.757812 9.535156 -11.296875 9.859375 -10.703125 C 10.179688 -10.117188 10.34375 -9.460938 10.34375 -8.734375 C 10.34375 -8.035156 10.1875 -7.394531 9.875 -6.8125 C 9.5625 -6.226562 9.078125 -5.757812 8.421875 -5.40625 C 7.765625 -5.050781 6.921875 -4.875 5.890625 -4.875 L 3.53125 -4.875 L 3.53125 0 Z M 3.53125 -6.75 L 5.734375 -6.75 C 6.546875 -6.75 7.128906 -6.925781 7.484375 -7.28125 C 7.835938 -7.632812 8.015625 -8.117188 8.015625 -8.734375 C 8.015625 -9.359375 7.835938 -9.847656 7.484375 -10.203125 C 7.128906 -10.554688 6.546875 -10.734375 5.734375 -10.734375 L 3.53125 -10.734375 Z M 3.53125 -6.75 "/></g></g></g><g fill="#2b4743" fill-opacity="1"><g transform="translate(155.123087, 223.834862)"><g><path d="M 1.21875 0 L 1.21875 -12.59375 L 5.890625 -12.59375 C 6.890625 -12.59375 7.71875 -12.425781 8.375 -12.09375 C 9.039062 -11.757812 9.535156 -11.296875 9.859375 -10.703125 C 10.179688 -10.117188 10.34375 -9.460938 10.34375 -8.734375 C 10.34375 -8.035156 10.1875 -7.394531 9.875 -6.8125 C 9.5625 -6.226562 9.078125 -5.757812 8.421875 -5.40625 C 7.765625 -5.050781 6.921875 -4.875 5.890625 -4.875 L 3.53125 -4.875 L 3.53125 0 Z M 3.53125 -6.75 L 5.734375 -6.75 C 6.546875 -6.75 7.128906 -6.925781 7.484375 -7.28125 C 7.835938 -7.632812 8.015625 -8.117188 8.015625 -8.734375 C 8.015625 -9.359375 7.835938 -9.847656 7.484375 -10.203125 C 7.128906 -10.554688 6.546875 -10.734375 5.734375 -10.734375 L 3.53125 -10.734375 Z M 3.53125 -6.75 "/></g></g></g><g fill="#2b4743" fill-opacity="1"><g transform="translate(173.213265, 223.834862)"><g><path d="M 4.484375 0 L 4.484375 -4.484375 L 0.25 -12.59375 L 2.859375 -12.59375 L 5.65625 -6.78125 L 8.421875 -12.59375 L 11 -12.59375 L 6.78125 -4.484375 L 6.78125 0 Z M 4.484375 0 "/></g></g></g><g fill="#2b4743" fill-opacity="1"><g transform="translate(191.627437, 223.834862)"><g/></g></g><g fill="#2b4743" fill-opacity="1"><g transform="translate(203.075642, 223.834862)"><g><path d="M 1.21875 0 L 1.21875 -12.59375 L 9.453125 -12.59375 L 9.453125 -10.75 L 3.53125 -10.75 L 3.53125 -7.296875 L 8.90625 -7.296875 L 8.90625 -5.484375 L 3.53125 -5.484375 L 3.53125 -1.859375 L 9.453125 -1.859375 L 9.453125 0 Z M 1.21875 0 "/></g></g></g><g fill="#2b4743" fill-opacity="1"><g transform="translate(220.643821, 223.834862)"><g><path d="M 0.40625 0 L 5.015625 -12.59375 L 7.609375 -12.59375 L 12.21875 0 L 9.78125 0 L 8.765625 -2.921875 L 3.859375 -2.921875 L 2.828125 0 Z M 4.484375 -4.71875 L 8.140625 -4.71875 L 6.296875 -9.953125 Z M 4.484375 -4.71875 "/></g></g></g><g fill="#2b4743" fill-opacity="1"><g transform="translate(240.425986, 223.834862)"><g><path d="M 1.21875 0 L 1.21875 -12.59375 L 5.84375 -12.59375 C 6.851562 -12.59375 7.6875 -12.421875 8.34375 -12.078125 C 9 -11.742188 9.488281 -11.285156 9.8125 -10.703125 C 10.132812 -10.117188 10.296875 -9.472656 10.296875 -8.765625 C 10.296875 -7.992188 10.09375 -7.289062 9.6875 -6.65625 C 9.289062 -6.019531 8.664062 -5.5625 7.8125 -5.28125 L 10.421875 0 L 7.78125 0 L 5.4375 -4.96875 L 3.53125 -4.96875 L 3.53125 0 Z M 3.53125 -6.65625 L 5.703125 -6.65625 C 6.472656 -6.65625 7.035156 -6.84375 7.390625 -7.21875 C 7.753906 -7.59375 7.9375 -8.082031 7.9375 -8.6875 C 7.9375 -9.289062 7.757812 -9.769531 7.40625 -10.125 C 7.050781 -10.488281 6.476562 -10.671875 5.6875 -10.671875 L 3.53125 -10.671875 Z M 3.53125 -6.65625 "/></g></g></g><g fill="#2b4743" fill-opacity="1"><g transform="translate(258.804155, 223.834862)"><g><path d="M 4.15625 0 L 4.15625 -10.75 L 0.484375 -10.75 L 0.484375 -12.59375 L 10.15625 -12.59375 L 10.15625 -10.75 L 6.46875 -10.75 L 6.46875 0 Z M 4.15625 0 "/></g></g></g><g fill="#2b4743" fill-opacity="1"><g transform="translate(276.606331, 223.834862)"><g><path d="M 1.21875 0 L 1.21875 -12.59375 L 3.53125 -12.59375 L 3.53125 -7.359375 L 9.1875 -7.359375 L 9.1875 -12.59375 L 11.484375 -12.59375 L 11.484375 0 L 9.1875 0 L 9.1875 -5.484375 L 3.53125 -5.484375 L 3.53125 0 Z M 1.21875 0 "/></g></g></g><g fill="#2b4743" fill-opacity="1"><g transform="translate(104.937826, 243.784731)"><g><path d="M 0.34375 0 L 4.1875 -10.5 L 6.34375 -10.5 L 10.1875 0 L 8.140625 0 L 7.3125 -2.4375 L 3.203125 -2.4375 L 2.359375 0 Z M 3.734375 -3.9375 L 6.78125 -3.9375 L 5.25 -8.296875 Z M 3.734375 -3.9375 "/></g></g></g><g fill="#2b4743" fill-opacity="1"><g transform="translate(121.423055, 243.784731)"><g><path d="M 1.015625 0 L 1.015625 -10.5 L 4.875 -10.5 C 5.71875 -10.5 6.410156 -10.351562 6.953125 -10.0625 C 7.492188 -9.78125 7.898438 -9.394531 8.171875 -8.90625 C 8.441406 -8.425781 8.578125 -7.894531 8.578125 -7.3125 C 8.578125 -6.664062 8.410156 -6.078125 8.078125 -5.546875 C 7.742188 -5.015625 7.222656 -4.628906 6.515625 -4.390625 L 8.6875 0 L 6.484375 0 L 4.53125 -4.140625 L 2.9375 -4.140625 L 2.9375 0 Z M 2.9375 -5.546875 L 4.75 -5.546875 C 5.394531 -5.546875 5.863281 -5.703125 6.15625 -6.015625 C 6.457031 -6.328125 6.609375 -6.738281 6.609375 -7.25 C 6.609375 -7.75 6.460938 -8.144531 6.171875 -8.4375 C 5.878906 -8.738281 5.398438 -8.890625 4.734375 -8.890625 L 2.9375 -8.890625 Z M 2.9375 -5.546875 "/></g></g></g><g fill="#2b4743" fill-opacity="1"><g transform="translate(136.738286, 243.784731)"><g><path d="M 5.78125 0.1875 C 4.71875 0.1875 3.804688 -0.0390625 3.046875 -0.5 C 2.285156 -0.957031 1.695312 -1.59375 1.28125 -2.40625 C 0.875 -3.21875 0.671875 -4.160156 0.671875 -5.234375 C 0.671875 -6.304688 0.875 -7.25 1.28125 -8.0625 C 1.695312 -8.882812 2.285156 -9.523438 3.046875 -9.984375 C 3.804688 -10.453125 4.71875 -10.6875 5.78125 -10.6875 C 7.039062 -10.6875 8.070312 -10.375 8.875 -9.75 C 9.675781 -9.125 10.175781 -8.242188 10.375 -7.109375 L 8.265625 -7.109375 C 8.128906 -7.679688 7.847656 -8.128906 7.421875 -8.453125 C 7.003906 -8.773438 6.445312 -8.9375 5.75 -8.9375 C 4.78125 -8.9375 4.019531 -8.601562 3.46875 -7.9375 C 2.914062 -7.28125 2.640625 -6.378906 2.640625 -5.234375 C 2.640625 -4.085938 2.914062 -3.1875 3.46875 -2.53125 C 4.019531 -1.875 4.78125 -1.546875 5.75 -1.546875 C 6.445312 -1.546875 7.003906 -1.695312 7.421875 -2 C 7.847656 -2.300781 8.128906 -2.722656 8.265625 -3.265625 L 10.375 -3.265625 C 10.175781 -2.191406 9.675781 -1.347656 8.875 -0.734375 C 8.070312 -0.117188 7.039062 0.1875 5.78125 0.1875 Z M 5.78125 0.1875 "/></g></g></g><g fill="#2b4743" fill-opacity="1"><g transform="translate(153.763514, 243.784731)"><g><path d="M 1.015625 0 L 1.015625 -10.5 L 2.9375 -10.5 L 2.9375 -6.140625 L 7.65625 -6.140625 L 7.65625 -10.5 L 9.5625 -10.5 L 9.5625 0 L 7.65625 0 L 7.65625 -4.578125 L 2.9375 -4.578125 L 2.9375 0 Z M 1.015625 0 "/></g></g></g><g fill="#2b4743" fill-opacity="1"><g transform="translate(170.323737, 243.784731)"><g><path d="M 1.015625 0 L 1.015625 -10.5 L 2.9375 -10.5 L 2.9375 0 Z M 1.015625 0 "/></g></g></g><g fill="#2b4743" fill-opacity="1"><g transform="translate(180.253975, 243.784731)"><g><path d="M 3.46875 0 L 3.46875 -8.953125 L 0.40625 -8.953125 L 0.40625 -10.5 L 8.453125 -10.5 L 8.453125 -8.953125 L 5.390625 -8.953125 L 5.390625 0 Z M 3.46875 0 "/></g></g></g><g fill="#2b4743" fill-opacity="1"><g transform="translate(195.089208, 243.784731)"><g><path d="M 1.015625 0 L 1.015625 -10.5 L 7.875 -10.5 L 7.875 -8.953125 L 2.9375 -8.953125 L 2.9375 -6.078125 L 7.421875 -6.078125 L 7.421875 -4.578125 L 2.9375 -4.578125 L 2.9375 -1.546875 L 7.875 -1.546875 L 7.875 0 Z M 1.015625 0 "/></g></g></g><g fill="#2b4743" fill-opacity="1"><g transform="translate(209.729434, 243.784731)"><g><path d="M 5.78125 0.1875 C 4.71875 0.1875 3.804688 -0.0390625 3.046875 -0.5 C 2.285156 -0.957031 1.695312 -1.59375 1.28125 -2.40625 C 0.875 -3.21875 0.671875 -4.160156 0.671875 -5.234375 C 0.671875 -6.304688 0.875 -7.25 1.28125 -8.0625 C 1.695312 -8.882812 2.285156 -9.523438 3.046875 -9.984375 C 3.804688 -10.453125 4.71875 -10.6875 5.78125 -10.6875 C 7.039062 -10.6875 8.070312 -10.375 8.875 -9.75 C 9.675781 -9.125 10.175781 -8.242188 10.375 -7.109375 L 8.265625 -7.109375 C 8.128906 -7.679688 7.847656 -8.128906 7.421875 -8.453125 C 7.003906 -8.773438 6.445312 -8.9375 5.75 -8.9375 C 4.78125 -8.9375 4.019531 -8.601562 3.46875 -7.9375 C 2.914062 -7.28125 2.640625 -6.378906 2.640625 -5.234375 C 2.640625 -4.085938 2.914062 -3.1875 3.46875 -2.53125 C 4.019531 -1.875 4.78125 -1.546875 5.75 -1.546875 C 6.445312 -1.546875 7.003906 -1.695312 7.421875 -2 C 7.847656 -2.300781 8.128906 -2.722656 8.265625 -3.265625 L 10.375 -3.265625 C 10.175781 -2.191406 9.675781 -1.347656 8.875 -0.734375 C 8.070312 -0.117188 7.039062 0.1875 5.78125 0.1875 Z M 5.78125 0.1875 "/></g></g></g><g fill="#2b4743" fill-opacity="1"><g transform="translate(226.754659, 243.784731)"><g><path d="M 3.46875 0 L 3.46875 -8.953125 L 0.40625 -8.953125 L 0.40625 -10.5 L 8.453125 -10.5 L 8.453125 -8.953125 L 5.390625 -8.953125 L 5.390625 0 Z M 3.46875 0 "/></g></g></g><g fill="#2b4743" fill-opacity="1"><g transform="translate(241.589886, 243.784731)"><g><path d="M 5.0625 0.1875 C 4.300781 0.1875 3.609375 0.0351562 2.984375 -0.265625 C 2.367188 -0.578125 1.875 -1.039062 1.5 -1.65625 C 1.132812 -2.28125 0.953125 -3.066406 0.953125 -4.015625 L 0.953125 -10.5 L 2.875 -10.5 L 2.875 -4 C 2.875 -3.1875 3.070312 -2.578125 3.46875 -2.171875 C 3.863281 -1.773438 4.410156 -1.578125 5.109375 -1.578125 C 5.804688 -1.578125 6.351562 -1.773438 6.75 -2.171875 C 7.144531 -2.578125 7.34375 -3.1875 7.34375 -4 L 7.34375 -10.5 L 9.265625 -10.5 L 9.265625 -4.015625 C 9.265625 -3.066406 9.070312 -2.28125 8.6875 -1.65625 C 8.3125 -1.039062 7.804688 -0.578125 7.171875 -0.265625 C 6.535156 0.0351562 5.832031 0.1875 5.0625 0.1875 Z M 5.0625 0.1875 "/></g></g></g><g fill="#2b4743" fill-opacity="1"><g transform="translate(257.775104, 243.784731)"><g><path d="M 1.015625 0 L 1.015625 -10.5 L 4.875 -10.5 C 5.71875 -10.5 6.410156 -10.351562 6.953125 -10.0625 C 7.492188 -9.78125 7.898438 -9.394531 8.171875 -8.90625 C 8.441406 -8.425781 8.578125 -7.894531 8.578125 -7.3125 C 8.578125 -6.664062 8.410156 -6.078125 8.078125 -5.546875 C 7.742188 -5.015625 7.222656 -4.628906 6.515625 -4.390625 L 8.6875 0 L 6.484375 0 L 4.53125 -4.140625 L 2.9375 -4.140625 L 2.9375 0 Z M 2.9375 -5.546875 L 4.75 -5.546875 C 5.394531 -5.546875 5.863281 -5.703125 6.15625 -6.015625 C 6.457031 -6.328125 6.609375 -6.738281 6.609375 -7.25 C 6.609375 -7.75 6.460938 -8.144531 6.171875 -8.4375 C 5.878906 -8.738281 5.398438 -8.890625 4.734375 -8.890625 L 2.9375 -8.890625 Z M 2.9375 -5.546875 "/></g></g></g><g fill="#2b4743" fill-opacity="1"><g transform="translate(273.09033, 243.784731)"><g><path d="M 1.015625 0 L 1.015625 -10.5 L 7.875 -10.5 L 7.875 -8.953125 L 2.9375 -8.953125 L 2.9375 -6.078125 L 7.421875 -6.078125 L 7.421875 -4.578125 L 2.9375 -4.578125 L 2.9375 -1.546875 L 7.875 -1.546875 L 7.875 0 Z M 1.015625 0 "/></g></g></g></svg>