<svg xmlns="http://www.w3.org/2000/svg" xmlns:xlink="http://www.w3.org/1999/xlink" viewBox="0 0 218 38" version="1.0"><defs><g/></defs><path fill="#2b4743" d="M 24.414062 19.75 L 26.421875 19.75 L 26.421875 24.335938 L 24.414062 24.335938 Z M 24.414062 19.75 " fill-opacity="1" fill-rule="nonzero"/><path fill="#2b4743" d="M 12.183594 10.363281 L 14.191406 10.363281 L 14.191406 14.949219 L 12.183594 14.949219 Z M 12.183594 10.363281 " fill-opacity="1" fill-rule="nonzero"/><path fill="#2b4743" d="M 24.414062 10.363281 L 26.421875 10.363281 L 26.421875 14.949219 L 24.414062 14.949219 Z M 24.414062 10.363281 " fill-opacity="1" fill-rule="nonzero"/><path fill="#2b4743" d="M 12.183594 19.75 L 14.191406 19.75 L 14.191406 24.335938 L 12.183594 24.335938 Z M 12.183594 19.75 " fill-opacity="1" fill-rule="nonzero"/><path fill="#2b4743" d="M 10.574219 16.339844 L 28.039062 16.339844 L 28.039062 18.347656 L 10.574219 18.347656 Z M 10.574219 16.339844 " fill-opacity="1" fill-rule="nonzero"/><path fill="#2b4743" d="M 19.027344 0.867188 C 9.9375 0.867188 2.546875 8.261719 2.546875 17.34375 C 2.546875 26.425781 9.945312 33.824219 19.027344 33.824219 C 28.109375 33.824219 35.503906 26.425781 35.503906 17.34375 C 35.503906 8.261719 28.117188 0.867188 19.027344 0.867188 Z M 19.027344 31.824219 C 11.046875 31.824219 4.558594 25.324219 4.558594 17.34375 C 4.558594 9.363281 11.046875 2.875 19.027344 2.875 C 27.007812 2.875 33.496094 9.363281 33.496094 17.34375 C 33.496094 25.324219 27.007812 31.824219 19.027344 31.824219 Z M 19.027344 31.824219 " fill-opacity="1" fill-rule="nonzero"/><g fill="#2b4743" fill-opacity="1"><g transform="translate(40.805309, 15.234718)"><g><path d="M 0.765625 0 L 0.765625 -7.828125 L 2.1875 -7.828125 L 2.1875 -4.578125 L 5.703125 -4.578125 L 5.703125 -7.828125 L 7.140625 -7.828125 L 7.140625 0 L 5.703125 0 L 5.703125 -3.40625 L 2.1875 -3.40625 L 2.1875 0 Z M 0.765625 0 "/></g></g></g><g fill="#2b4743" fill-opacity="1"><g transform="translate(53.155502, 15.234718)"><g><path d="M 0.25 0 L 3.125 -7.828125 L 4.734375 -7.828125 L 7.59375 0 L 6.078125 0 L 5.453125 -1.8125 L 2.390625 -1.8125 L 1.75 0 Z M 2.78125 -2.9375 L 5.0625 -2.9375 L 3.921875 -6.1875 Z M 2.78125 -2.9375 "/></g></g></g><g fill="#2b4743" fill-opacity="1"><g transform="translate(65.449765, 15.234718)"><g><path d="M 0.765625 0 L 0.765625 -7.828125 L 3.65625 -7.828125 C 4.28125 -7.828125 4.796875 -7.722656 5.203125 -7.515625 C 5.617188 -7.304688 5.925781 -7.019531 6.125 -6.65625 C 6.332031 -6.289062 6.4375 -5.878906 6.4375 -5.421875 C 6.4375 -4.992188 6.335938 -4.597656 6.140625 -4.234375 C 5.941406 -3.867188 5.640625 -3.578125 5.234375 -3.359375 C 4.828125 -3.140625 4.300781 -3.03125 3.65625 -3.03125 L 2.1875 -3.03125 L 2.1875 0 Z M 2.1875 -4.203125 L 3.5625 -4.203125 C 4.0625 -4.203125 4.421875 -4.3125 4.640625 -4.53125 C 4.867188 -4.75 4.984375 -5.046875 4.984375 -5.421875 C 4.984375 -5.804688 4.867188 -6.109375 4.640625 -6.328125 C 4.421875 -6.554688 4.0625 -6.671875 3.5625 -6.671875 L 2.1875 -6.671875 Z M 2.1875 -4.203125 "/></g></g></g><g fill="#2b4743" fill-opacity="1"><g transform="translate(76.692603, 15.234718)"><g><path d="M 0.765625 0 L 0.765625 -7.828125 L 3.65625 -7.828125 C 4.28125 -7.828125 4.796875 -7.722656 5.203125 -7.515625 C 5.617188 -7.304688 5.925781 -7.019531 6.125 -6.65625 C 6.332031 -6.289062 6.4375 -5.878906 6.4375 -5.421875 C 6.4375 -4.992188 6.335938 -4.597656 6.140625 -4.234375 C 5.941406 -3.867188 5.640625 -3.578125 5.234375 -3.359375 C 4.828125 -3.140625 4.300781 -3.03125 3.65625 -3.03125 L 2.1875 -3.03125 L 2.1875 0 Z M 2.1875 -4.203125 L 3.5625 -4.203125 C 4.0625 -4.203125 4.421875 -4.3125 4.640625 -4.53125 C 4.867188 -4.75 4.984375 -5.046875 4.984375 -5.421875 C 4.984375 -5.804688 4.867188 -6.109375 4.640625 -6.328125 C 4.421875 -6.554688 4.0625 -6.671875 3.5625 -6.671875 L 2.1875 -6.671875 Z M 2.1875 -4.203125 "/></g></g></g><g fill="#2b4743" fill-opacity="1"><g transform="translate(87.935441, 15.234718)"><g><path d="M 2.78125 0 L 2.78125 -2.78125 L 0.15625 -7.828125 L 1.78125 -7.828125 L 3.515625 -4.21875 L 5.234375 -7.828125 L 6.828125 -7.828125 L 4.21875 -2.78125 L 4.21875 0 Z M 2.78125 0 "/></g></g></g><g fill="#2b4743" fill-opacity="1"><g transform="translate(99.379619, 15.234718)"><g/></g></g><g fill="#2b4743" fill-opacity="1"><g transform="translate(106.495035, 15.234718)"><g><path d="M 0.765625 0 L 0.765625 -7.828125 L 5.875 -7.828125 L 5.875 -6.671875 L 2.1875 -6.671875 L 2.1875 -4.53125 L 5.53125 -4.53125 L 5.53125 -3.40625 L 2.1875 -3.40625 L 2.1875 -1.15625 L 5.875 -1.15625 L 5.875 0 Z M 0.765625 0 "/></g></g></g><g fill="#2b4743" fill-opacity="1"><g transform="translate(117.413495, 15.234718)"><g><path d="M 0.25 0 L 3.125 -7.828125 L 4.734375 -7.828125 L 7.59375 0 L 6.078125 0 L 5.453125 -1.8125 L 2.390625 -1.8125 L 1.75 0 Z M 2.78125 -2.9375 L 5.0625 -2.9375 L 3.921875 -6.1875 Z M 2.78125 -2.9375 "/></g></g></g><g fill="#2b4743" fill-opacity="1"><g transform="translate(129.707758, 15.234718)"><g><path d="M 0.765625 0 L 0.765625 -7.828125 L 3.640625 -7.828125 C 4.265625 -7.828125 4.78125 -7.71875 5.1875 -7.5 C 5.59375 -7.289062 5.894531 -7.003906 6.09375 -6.640625 C 6.300781 -6.285156 6.40625 -5.890625 6.40625 -5.453125 C 6.40625 -4.972656 6.28125 -4.535156 6.03125 -4.140625 C 5.78125 -3.742188 5.390625 -3.457031 4.859375 -3.28125 L 6.484375 0 L 4.828125 0 L 3.375 -3.09375 L 2.1875 -3.09375 L 2.1875 0 Z M 2.1875 -4.140625 L 3.546875 -4.140625 C 4.023438 -4.140625 4.375 -4.253906 4.59375 -4.484375 C 4.820312 -4.710938 4.9375 -5.019531 4.9375 -5.40625 C 4.9375 -5.78125 4.828125 -6.078125 4.609375 -6.296875 C 4.390625 -6.523438 4.03125 -6.640625 3.53125 -6.640625 L 2.1875 -6.640625 Z M 2.1875 -4.140625 "/></g></g></g><g fill="#2b4743" fill-opacity="1"><g transform="translate(141.12956, 15.234718)"><g><path d="M 2.578125 0 L 2.578125 -6.671875 L 0.296875 -6.671875 L 0.296875 -7.828125 L 6.3125 -7.828125 L 6.3125 -6.671875 L 4.015625 -6.671875 L 4.015625 0 Z M 2.578125 0 "/></g></g></g><g fill="#2b4743" fill-opacity="1"><g transform="translate(152.193423, 15.234718)"><g><path d="M 0.765625 0 L 0.765625 -7.828125 L 2.1875 -7.828125 L 2.1875 -4.578125 L 5.703125 -4.578125 L 5.703125 -7.828125 L 7.140625 -7.828125 L 7.140625 0 L 5.703125 0 L 5.703125 -3.40625 L 2.1875 -3.40625 L 2.1875 0 Z M 0.765625 0 "/></g></g></g><g fill="#2b4743" fill-opacity="1"><g transform="translate(52.716617, 26.932498)"><g><path d="M 0.1875 0 L 2.265625 -5.6875 L 3.4375 -5.6875 L 5.515625 0 L 4.40625 0 L 3.953125 -1.3125 L 1.734375 -1.3125 L 1.28125 0 Z M 2.015625 -2.125 L 3.671875 -2.125 L 2.84375 -4.5 Z M 2.015625 -2.125 "/></g></g></g><g fill="#2b4743" fill-opacity="1"><g transform="translate(61.654463, 26.932498)"><g><path d="M 0.546875 0 L 0.546875 -5.6875 L 2.640625 -5.6875 C 3.097656 -5.6875 3.472656 -5.609375 3.765625 -5.453125 C 4.054688 -5.296875 4.273438 -5.085938 4.421875 -4.828125 C 4.566406 -4.566406 4.640625 -4.273438 4.640625 -3.953125 C 4.640625 -3.609375 4.550781 -3.289062 4.375 -3 C 4.195312 -2.71875 3.914062 -2.507812 3.53125 -2.375 L 4.703125 0 L 3.515625 0 L 2.453125 -2.25 L 1.59375 -2.25 L 1.59375 0 Z M 1.59375 -3 L 2.578125 -3 C 2.921875 -3 3.171875 -3.082031 3.328125 -3.25 C 3.492188 -3.425781 3.578125 -3.648438 3.578125 -3.921875 C 3.578125 -4.191406 3.5 -4.40625 3.34375 -4.5625 C 3.1875 -4.726562 2.925781 -4.8125 2.5625 -4.8125 L 1.59375 -4.8125 Z M 1.59375 -3 "/></g></g></g><g fill="#2b4743" fill-opacity="1"><g transform="translate(69.957957, 26.932498)"><g><path d="M 3.125 0.09375 C 2.550781 0.09375 2.054688 -0.0234375 1.640625 -0.265625 C 1.234375 -0.515625 0.914062 -0.859375 0.6875 -1.296875 C 0.46875 -1.742188 0.359375 -2.253906 0.359375 -2.828125 C 0.359375 -3.410156 0.46875 -3.921875 0.6875 -4.359375 C 0.914062 -4.804688 1.234375 -5.15625 1.640625 -5.40625 C 2.054688 -5.65625 2.550781 -5.78125 3.125 -5.78125 C 3.8125 -5.78125 4.367188 -5.609375 4.796875 -5.265625 C 5.234375 -4.929688 5.507812 -4.457031 5.625 -3.84375 L 4.484375 -3.84375 C 4.410156 -4.15625 4.257812 -4.398438 4.03125 -4.578125 C 3.800781 -4.753906 3.492188 -4.84375 3.109375 -4.84375 C 2.585938 -4.84375 2.175781 -4.660156 1.875 -4.296875 C 1.582031 -3.941406 1.4375 -3.453125 1.4375 -2.828125 C 1.4375 -2.210938 1.582031 -1.726562 1.875 -1.375 C 2.175781 -1.019531 2.585938 -0.84375 3.109375 -0.84375 C 3.492188 -0.84375 3.800781 -0.921875 4.03125 -1.078125 C 4.257812 -1.242188 4.410156 -1.472656 4.484375 -1.765625 L 5.625 -1.765625 C 5.507812 -1.179688 5.234375 -0.722656 4.796875 -0.390625 C 4.367188 -0.0664062 3.8125 0.09375 3.125 0.09375 Z M 3.125 0.09375 "/></g></g></g><g fill="#2b4743" fill-opacity="1"><g transform="translate(79.188572, 26.932498)"><g><path d="M 0.546875 0 L 0.546875 -5.6875 L 1.59375 -5.6875 L 1.59375 -3.328125 L 4.140625 -3.328125 L 4.140625 -5.6875 L 5.1875 -5.6875 L 5.1875 0 L 4.140625 0 L 4.140625 -2.484375 L 1.59375 -2.484375 L 1.59375 0 Z M 0.546875 0 "/></g></g></g><g fill="#2b4743" fill-opacity="1"><g transform="translate(88.167079, 26.932498)"><g><path d="M 0.546875 0 L 0.546875 -5.6875 L 1.59375 -5.6875 L 1.59375 0 Z M 0.546875 0 "/></g></g></g><g fill="#2b4743" fill-opacity="1"><g transform="translate(93.550926, 26.932498)"><g><path d="M 1.875 0 L 1.875 -4.84375 L 0.21875 -4.84375 L 0.21875 -5.6875 L 4.578125 -5.6875 L 4.578125 -4.84375 L 2.921875 -4.84375 L 2.921875 0 Z M 1.875 0 "/></g></g></g><g fill="#2b4743" fill-opacity="1"><g transform="translate(101.594171, 26.932498)"><g><path d="M 0.546875 0 L 0.546875 -5.6875 L 4.265625 -5.6875 L 4.265625 -4.84375 L 1.59375 -4.84375 L 1.59375 -3.296875 L 4.015625 -3.296875 L 4.015625 -2.484375 L 1.59375 -2.484375 L 1.59375 -0.84375 L 4.265625 -0.84375 L 4.265625 0 Z M 0.546875 0 "/></g></g></g><g fill="#2b4743" fill-opacity="1"><g transform="translate(109.53169, 26.932498)"><g><path d="M 3.125 0.09375 C 2.550781 0.09375 2.054688 -0.0234375 1.640625 -0.265625 C 1.234375 -0.515625 0.914062 -0.859375 0.6875 -1.296875 C 0.46875 -1.742188 0.359375 -2.253906 0.359375 -2.828125 C 0.359375 -3.410156 0.46875 -3.921875 0.6875 -4.359375 C 0.914062 -4.804688 1.234375 -5.15625 1.640625 -5.40625 C 2.054688 -5.65625 2.550781 -5.78125 3.125 -5.78125 C 3.8125 -5.78125 4.367188 -5.609375 4.796875 -5.265625 C 5.234375 -4.929688 5.507812 -4.457031 5.625 -3.84375 L 4.484375 -3.84375 C 4.410156 -4.15625 4.257812 -4.398438 4.03125 -4.578125 C 3.800781 -4.753906 3.492188 -4.84375 3.109375 -4.84375 C 2.585938 -4.84375 2.175781 -4.660156 1.875 -4.296875 C 1.582031 -3.941406 1.4375 -3.453125 1.4375 -2.828125 C 1.4375 -2.210938 1.582031 -1.726562 1.875 -1.375 C 2.175781 -1.019531 2.585938 -0.84375 3.109375 -0.84375 C 3.492188 -0.84375 3.800781 -0.921875 4.03125 -1.078125 C 4.257812 -1.242188 4.410156 -1.472656 4.484375 -1.765625 L 5.625 -1.765625 C 5.507812 -1.179688 5.234375 -0.722656 4.796875 -0.390625 C 4.367188 -0.0664062 3.8125 0.09375 3.125 0.09375 Z M 3.125 0.09375 "/></g></g></g><g fill="#2b4743" fill-opacity="1"><g transform="translate(118.762306, 26.932498)"><g><path d="M 1.875 0 L 1.875 -4.84375 L 0.21875 -4.84375 L 0.21875 -5.6875 L 4.578125 -5.6875 L 4.578125 -4.84375 L 2.921875 -4.84375 L 2.921875 0 Z M 1.875 0 "/></g></g></g><g fill="#2b4743" fill-opacity="1"><g transform="translate(126.805554, 26.932498)"><g><path d="M 2.75 0.09375 C 2.332031 0.09375 1.953125 0.015625 1.609375 -0.140625 C 1.273438 -0.304688 1.007812 -0.554688 0.8125 -0.890625 C 0.613281 -1.234375 0.515625 -1.660156 0.515625 -2.171875 L 0.515625 -5.6875 L 1.5625 -5.6875 L 1.5625 -2.171875 C 1.5625 -1.722656 1.664062 -1.390625 1.875 -1.171875 C 2.09375 -0.960938 2.390625 -0.859375 2.765625 -0.859375 C 3.140625 -0.859375 3.4375 -0.960938 3.65625 -1.171875 C 3.875 -1.390625 3.984375 -1.722656 3.984375 -2.171875 L 3.984375 -5.6875 L 5.015625 -5.6875 L 5.015625 -2.171875 C 5.015625 -1.660156 4.910156 -1.234375 4.703125 -0.890625 C 4.503906 -0.554688 4.234375 -0.304688 3.890625 -0.140625 C 3.546875 0.015625 3.164062 0.09375 2.75 0.09375 Z M 2.75 0.09375 "/></g></g></g><g fill="#2b4743" fill-opacity="1"><g transform="translate(135.580743, 26.932498)"><g><path d="M 0.546875 0 L 0.546875 -5.6875 L 2.640625 -5.6875 C 3.097656 -5.6875 3.472656 -5.609375 3.765625 -5.453125 C 4.054688 -5.296875 4.273438 -5.085938 4.421875 -4.828125 C 4.566406 -4.566406 4.640625 -4.273438 4.640625 -3.953125 C 4.640625 -3.609375 4.550781 -3.289062 4.375 -3 C 4.195312 -2.71875 3.914062 -2.507812 3.53125 -2.375 L 4.703125 0 L 3.515625 0 L 2.453125 -2.25 L 1.59375 -2.25 L 1.59375 0 Z M 1.59375 -3 L 2.578125 -3 C 2.921875 -3 3.171875 -3.082031 3.328125 -3.25 C 3.492188 -3.425781 3.578125 -3.648438 3.578125 -3.921875 C 3.578125 -4.191406 3.5 -4.40625 3.34375 -4.5625 C 3.1875 -4.726562 2.925781 -4.8125 2.5625 -4.8125 L 1.59375 -4.8125 Z M 1.59375 -3 "/></g></g></g><g fill="#2b4743" fill-opacity="1"><g transform="translate(143.884232, 26.932498)"><g><path d="M 0.546875 0 L 0.546875 -5.6875 L 4.265625 -5.6875 L 4.265625 -4.84375 L 1.59375 -4.84375 L 1.59375 -3.296875 L 4.015625 -3.296875 L 4.015625 -2.484375 L 1.59375 -2.484375 L 1.59375 -0.84375 L 4.265625 -0.84375 L 4.265625 0 Z M 0.546875 0 "/></g></g></g></svg>