<svg xmlns="http://www.w3.org/2000/svg" xmlns:xlink="http://www.w3.org/1999/xlink" width="500" zoomAndPan="magnify" viewBox="0 0 375 374.999991" height="500" preserveAspectRatio="xMidYMid meet" version="1.0"><defs><g/></defs><path fill="#2b4743" d="M 138.59375 191.988281 L 142.238281 191.988281 L 142.238281 200.316406 L 138.59375 200.316406 Z M 138.59375 191.988281 " fill-opacity="1" fill-rule="nonzero"/><path fill="#2b4743" d="M 116.382812 174.9375 L 120.03125 174.9375 L 120.03125 183.265625 L 116.382812 183.265625 Z M 116.382812 174.9375 " fill-opacity="1" fill-rule="nonzero"/><path fill="#2b4743" d="M 138.59375 174.9375 L 142.238281 174.9375 L 142.238281 183.265625 L 138.59375 183.265625 Z M 138.59375 174.9375 " fill-opacity="1" fill-rule="nonzero"/><path fill="#2b4743" d="M 116.382812 191.988281 L 120.03125 191.988281 L 120.03125 200.316406 L 116.382812 200.316406 Z M 116.382812 191.988281 " fill-opacity="1" fill-rule="nonzero"/><path fill="#2b4743" d="M 113.457031 185.796875 L 145.179688 185.796875 L 145.179688 189.441406 L 113.457031 189.441406 Z M 113.457031 185.796875 " fill-opacity="1" fill-rule="nonzero"/><path fill="#2b4743" d="M 128.808594 157.695312 C 112.300781 157.695312 98.882812 171.128906 98.882812 187.621094 C 98.882812 204.113281 112.316406 217.542969 128.808594 217.542969 C 145.300781 217.542969 158.730469 204.113281 158.730469 187.621094 C 158.730469 171.128906 145.3125 157.695312 128.808594 157.695312 Z M 128.808594 213.910156 C 114.316406 213.910156 102.53125 202.113281 102.53125 187.621094 C 102.53125 173.128906 114.316406 161.34375 128.808594 161.34375 C 143.300781 161.34375 155.085938 173.128906 155.085938 187.621094 C 155.085938 202.113281 143.300781 213.910156 128.808594 213.910156 Z M 128.808594 213.910156 " fill-opacity="1" fill-rule="nonzero"/><g fill="#2b4743" fill-opacity="1"><g transform="translate(169.339477, 181.499988)"><g><path d="M 1.09375 0 L 1.09375 -11.203125 L 3.140625 -11.203125 L 3.140625 -6.546875 L 8.15625 -6.546875 L 8.15625 -11.203125 L 10.203125 -11.203125 L 10.203125 0 L 8.15625 0 L 8.15625 -4.875 L 3.140625 -4.875 L 3.140625 0 Z M 1.09375 0 "/></g></g></g><g fill="#2b4743" fill-opacity="1"><g transform="translate(187.000998, 181.499988)"><g><path d="M 0.375 0 L 4.46875 -11.203125 L 6.765625 -11.203125 L 10.859375 0 L 8.6875 0 L 7.796875 -2.59375 L 3.421875 -2.59375 L 2.515625 0 Z M 3.984375 -4.1875 L 7.234375 -4.1875 L 5.59375 -8.84375 Z M 3.984375 -4.1875 "/></g></g></g><g fill="#2b4743" fill-opacity="1"><g transform="translate(204.582537, 181.499988)"><g><path d="M 1.09375 0 L 1.09375 -11.203125 L 5.234375 -11.203125 C 6.128906 -11.203125 6.867188 -11.050781 7.453125 -10.75 C 8.046875 -10.445312 8.484375 -10.035156 8.765625 -9.515625 C 9.054688 -8.992188 9.203125 -8.410156 9.203125 -7.765625 C 9.203125 -7.140625 9.0625 -6.566406 8.78125 -6.046875 C 8.507812 -5.535156 8.078125 -5.125 7.484375 -4.8125 C 6.898438 -4.5 6.148438 -4.34375 5.234375 -4.34375 L 3.140625 -4.34375 L 3.140625 0 Z M 3.140625 -6 L 5.109375 -6 C 5.816406 -6 6.328125 -6.15625 6.640625 -6.46875 C 6.960938 -6.78125 7.125 -7.210938 7.125 -7.765625 C 7.125 -8.316406 6.960938 -8.75 6.640625 -9.0625 C 6.328125 -9.375 5.816406 -9.53125 5.109375 -9.53125 L 3.140625 -9.53125 Z M 3.140625 -6 "/></g></g></g><g fill="#2b4743" fill-opacity="1"><g transform="translate(220.660435, 181.499988)"><g><path d="M 1.09375 0 L 1.09375 -11.203125 L 5.234375 -11.203125 C 6.128906 -11.203125 6.867188 -11.050781 7.453125 -10.75 C 8.046875 -10.445312 8.484375 -10.035156 8.765625 -9.515625 C 9.054688 -8.992188 9.203125 -8.410156 9.203125 -7.765625 C 9.203125 -7.140625 9.0625 -6.566406 8.78125 -6.046875 C 8.507812 -5.535156 8.078125 -5.125 7.484375 -4.8125 C 6.898438 -4.5 6.148438 -4.34375 5.234375 -4.34375 L 3.140625 -4.34375 L 3.140625 0 Z M 3.140625 -6 L 5.109375 -6 C 5.816406 -6 6.328125 -6.15625 6.640625 -6.46875 C 6.960938 -6.78125 7.125 -7.210938 7.125 -7.765625 C 7.125 -8.316406 6.960938 -8.75 6.640625 -9.0625 C 6.328125 -9.375 5.816406 -9.53125 5.109375 -9.53125 L 3.140625 -9.53125 Z M 3.140625 -6 "/></g></g></g><g fill="#2b4743" fill-opacity="1"><g transform="translate(236.738335, 181.499988)"><g><path d="M 3.984375 0 L 3.984375 -3.984375 L 0.21875 -11.203125 L 2.546875 -11.203125 L 5.03125 -6.03125 L 7.484375 -11.203125 L 9.78125 -11.203125 L 6.03125 -3.984375 L 6.03125 0 Z M 3.984375 0 "/></g></g></g><g fill="#2b4743" fill-opacity="1"><g transform="translate(253.10417, 181.499988)"><g/></g></g><g fill="#2b4743" fill-opacity="1"><g transform="translate(263.279483, 181.499988)"><g><path d="M 1.09375 0 L 1.09375 -11.203125 L 8.40625 -11.203125 L 8.40625 -9.546875 L 3.140625 -9.546875 L 3.140625 -6.484375 L 7.921875 -6.484375 L 7.921875 -4.875 L 3.140625 -4.875 L 3.140625 -1.640625 L 8.40625 -1.640625 L 8.40625 0 Z M 1.09375 0 "/></g></g></g><g fill="#2b4743" fill-opacity="1"><g transform="translate(278.893497, 181.499988)"><g><path d="M 0.375 0 L 4.46875 -11.203125 L 6.765625 -11.203125 L 10.859375 0 L 8.6875 0 L 7.796875 -2.59375 L 3.421875 -2.59375 L 2.515625 0 Z M 3.984375 -4.1875 L 7.234375 -4.1875 L 5.59375 -8.84375 Z M 3.984375 -4.1875 "/></g></g></g><g fill="#2b4743" fill-opacity="1"><g transform="translate(296.475031, 181.499988)"><g><path d="M 1.09375 0 L 1.09375 -11.203125 L 5.203125 -11.203125 C 6.097656 -11.203125 6.832031 -11.046875 7.40625 -10.734375 C 7.988281 -10.429688 8.425781 -10.019531 8.71875 -9.5 C 9.007812 -8.988281 9.15625 -8.421875 9.15625 -7.796875 C 9.15625 -7.109375 8.972656 -6.484375 8.609375 -5.921875 C 8.253906 -5.359375 7.695312 -4.945312 6.9375 -4.6875 L 9.265625 0 L 6.90625 0 L 4.828125 -4.421875 L 3.140625 -4.421875 L 3.140625 0 Z M 3.140625 -5.921875 L 5.078125 -5.921875 C 5.753906 -5.921875 6.253906 -6.082031 6.578125 -6.40625 C 6.898438 -6.738281 7.0625 -7.179688 7.0625 -7.734375 C 7.0625 -8.265625 6.898438 -8.6875 6.578125 -9 C 6.265625 -9.320312 5.757812 -9.484375 5.0625 -9.484375 L 3.140625 -9.484375 Z M 3.140625 -5.921875 "/></g></g></g><g fill="#2b4743" fill-opacity="1"><g transform="translate(312.808862, 181.499988)"><g><path d="M 3.703125 0 L 3.703125 -9.546875 L 0.4375 -9.546875 L 0.4375 -11.203125 L 9.03125 -11.203125 L 9.03125 -9.546875 L 5.75 -9.546875 L 5.75 0 Z M 3.703125 0 "/></g></g></g><g fill="#2b4743" fill-opacity="1"><g transform="translate(328.63081, 181.499988)"><g><path d="M 1.09375 0 L 1.09375 -11.203125 L 3.140625 -11.203125 L 3.140625 -6.546875 L 8.15625 -6.546875 L 8.15625 -11.203125 L 10.203125 -11.203125 L 10.203125 0 L 8.15625 0 L 8.15625 -4.875 L 3.140625 -4.875 L 3.140625 0 Z M 1.09375 0 "/></g></g></g><g fill="#2b4743" fill-opacity="1"><g transform="translate(177.657078, 201.649909)"><g><path d="M 0.296875 0 L 3.625 -9.09375 L 5.5 -9.09375 L 8.828125 0 L 7.0625 0 L 6.328125 -2.109375 L 2.78125 -2.109375 L 2.046875 0 Z M 3.234375 -3.40625 L 5.875 -3.40625 L 4.546875 -7.1875 Z M 3.234375 -3.40625 "/></g></g></g><g fill="#2b4743" fill-opacity="1"><g transform="translate(191.941542, 201.649909)"><g><path d="M 0.890625 0 L 0.890625 -9.09375 L 4.21875 -9.09375 C 4.945312 -9.09375 5.546875 -8.96875 6.015625 -8.71875 C 6.492188 -8.476562 6.847656 -8.144531 7.078125 -7.71875 C 7.316406 -7.300781 7.4375 -6.835938 7.4375 -6.328125 C 7.4375 -5.773438 7.289062 -5.269531 7 -4.8125 C 6.707031 -4.351562 6.253906 -4.019531 5.640625 -3.8125 L 7.53125 0 L 5.609375 0 L 3.921875 -3.59375 L 2.546875 -3.59375 L 2.546875 0 Z M 2.546875 -4.8125 L 4.125 -4.8125 C 4.675781 -4.8125 5.082031 -4.941406 5.34375 -5.203125 C 5.601562 -5.472656 5.734375 -5.832031 5.734375 -6.28125 C 5.734375 -6.707031 5.601562 -7.050781 5.34375 -7.3125 C 5.09375 -7.570312 4.679688 -7.703125 4.109375 -7.703125 L 2.546875 -7.703125 Z M 2.546875 -4.8125 "/></g></g></g><g fill="#2b4743" fill-opacity="1"><g transform="translate(205.212323, 201.649909)"><g><path d="M 5 0.15625 C 4.082031 0.15625 3.296875 -0.0390625 2.640625 -0.4375 C 1.984375 -0.832031 1.472656 -1.378906 1.109375 -2.078125 C 0.753906 -2.785156 0.578125 -3.601562 0.578125 -4.53125 C 0.578125 -5.457031 0.753906 -6.273438 1.109375 -6.984375 C 1.472656 -7.703125 1.984375 -8.257812 2.640625 -8.65625 C 3.296875 -9.050781 4.082031 -9.25 5 -9.25 C 6.09375 -9.25 6.988281 -8.976562 7.6875 -8.4375 C 8.382812 -7.894531 8.820312 -7.132812 9 -6.15625 L 7.15625 -6.15625 C 7.050781 -6.65625 6.8125 -7.046875 6.4375 -7.328125 C 6.070312 -7.609375 5.585938 -7.75 4.984375 -7.75 C 4.140625 -7.75 3.476562 -7.460938 3 -6.890625 C 2.519531 -6.316406 2.28125 -5.53125 2.28125 -4.53125 C 2.28125 -3.539062 2.519531 -2.757812 3 -2.1875 C 3.476562 -1.625 4.140625 -1.34375 4.984375 -1.34375 C 5.585938 -1.34375 6.070312 -1.472656 6.4375 -1.734375 C 6.8125 -1.992188 7.050781 -2.359375 7.15625 -2.828125 L 9 -2.828125 C 8.820312 -1.898438 8.382812 -1.171875 7.6875 -0.640625 C 6.988281 -0.109375 6.09375 0.15625 5 0.15625 Z M 5 0.15625 "/></g></g></g><g fill="#2b4743" fill-opacity="1"><g transform="translate(219.964646, 201.649909)"><g><path d="M 0.890625 0 L 0.890625 -9.09375 L 2.546875 -9.09375 L 2.546875 -5.3125 L 6.625 -5.3125 L 6.625 -9.09375 L 8.296875 -9.09375 L 8.296875 0 L 6.625 0 L 6.625 -3.96875 L 2.546875 -3.96875 L 2.546875 0 Z M 0.890625 0 "/></g></g></g><g fill="#2b4743" fill-opacity="1"><g transform="translate(234.314088, 201.649909)"><g><path d="M 0.890625 0 L 0.890625 -9.09375 L 2.546875 -9.09375 L 2.546875 0 Z M 0.890625 0 "/></g></g></g><g fill="#2b4743" fill-opacity="1"><g transform="translate(242.919295, 201.649909)"><g><path d="M 3 0 L 3 -7.765625 L 0.34375 -7.765625 L 0.34375 -9.09375 L 7.328125 -9.09375 L 7.328125 -7.765625 L 4.671875 -7.765625 L 4.671875 0 Z M 3 0 "/></g></g></g><g fill="#2b4743" fill-opacity="1"><g transform="translate(255.774197, 201.649909)"><g><path d="M 0.890625 0 L 0.890625 -9.09375 L 6.828125 -9.09375 L 6.828125 -7.765625 L 2.546875 -7.765625 L 2.546875 -5.265625 L 6.4375 -5.265625 L 6.4375 -3.96875 L 2.546875 -3.96875 L 2.546875 -1.34375 L 6.828125 -1.34375 L 6.828125 0 Z M 0.890625 0 "/></g></g></g><g fill="#2b4743" fill-opacity="1"><g transform="translate(268.460149, 201.649909)"><g><path d="M 5 0.15625 C 4.082031 0.15625 3.296875 -0.0390625 2.640625 -0.4375 C 1.984375 -0.832031 1.472656 -1.378906 1.109375 -2.078125 C 0.753906 -2.785156 0.578125 -3.601562 0.578125 -4.53125 C 0.578125 -5.457031 0.753906 -6.273438 1.109375 -6.984375 C 1.472656 -7.703125 1.984375 -8.257812 2.640625 -8.65625 C 3.296875 -9.050781 4.082031 -9.25 5 -9.25 C 6.09375 -9.25 6.988281 -8.976562 7.6875 -8.4375 C 8.382812 -7.894531 8.820312 -7.132812 9 -6.15625 L 7.15625 -6.15625 C 7.050781 -6.65625 6.8125 -7.046875 6.4375 -7.328125 C 6.070312 -7.609375 5.585938 -7.75 4.984375 -7.75 C 4.140625 -7.75 3.476562 -7.460938 3 -6.890625 C 2.519531 -6.316406 2.28125 -5.53125 2.28125 -4.53125 C 2.28125 -3.539062 2.519531 -2.757812 3 -2.1875 C 3.476562 -1.625 4.140625 -1.34375 4.984375 -1.34375 C 5.585938 -1.34375 6.070312 -1.472656 6.4375 -1.734375 C 6.8125 -1.992188 7.050781 -2.359375 7.15625 -2.828125 L 9 -2.828125 C 8.820312 -1.898438 8.382812 -1.171875 7.6875 -0.640625 C 6.988281 -0.109375 6.09375 0.15625 5 0.15625 Z M 5 0.15625 "/></g></g></g><g fill="#2b4743" fill-opacity="1"><g transform="translate(283.212475, 201.649909)"><g><path d="M 3 0 L 3 -7.765625 L 0.34375 -7.765625 L 0.34375 -9.09375 L 7.328125 -9.09375 L 7.328125 -7.765625 L 4.671875 -7.765625 L 4.671875 0 Z M 3 0 "/></g></g></g><g fill="#2b4743" fill-opacity="1"><g transform="translate(296.067382, 201.649909)"><g><path d="M 4.390625 0.15625 C 3.722656 0.15625 3.117188 0.0234375 2.578125 -0.234375 C 2.046875 -0.503906 1.617188 -0.90625 1.296875 -1.4375 C 0.984375 -1.976562 0.828125 -2.660156 0.828125 -3.484375 L 0.828125 -9.09375 L 2.5 -9.09375 L 2.5 -3.46875 C 2.5 -2.757812 2.664062 -2.226562 3 -1.875 C 3.34375 -1.53125 3.820312 -1.359375 4.4375 -1.359375 C 5.03125 -1.359375 5.5 -1.53125 5.84375 -1.875 C 6.195312 -2.226562 6.375 -2.757812 6.375 -3.46875 L 6.375 -9.09375 L 8.03125 -9.09375 L 8.03125 -3.484375 C 8.03125 -2.660156 7.863281 -1.976562 7.53125 -1.4375 C 7.207031 -0.90625 6.769531 -0.503906 6.21875 -0.234375 C 5.664062 0.0234375 5.054688 0.15625 4.390625 0.15625 Z M 4.390625 0.15625 "/></g></g></g><g fill="#2b4743" fill-opacity="1"><g transform="translate(310.091932, 201.649909)"><g><path d="M 0.890625 0 L 0.890625 -9.09375 L 4.21875 -9.09375 C 4.945312 -9.09375 5.546875 -8.96875 6.015625 -8.71875 C 6.492188 -8.476562 6.847656 -8.144531 7.078125 -7.71875 C 7.316406 -7.300781 7.4375 -6.835938 7.4375 -6.328125 C 7.4375 -5.773438 7.289062 -5.269531 7 -4.8125 C 6.707031 -4.351562 6.253906 -4.019531 5.640625 -3.8125 L 7.53125 0 L 5.609375 0 L 3.921875 -3.59375 L 2.546875 -3.59375 L 2.546875 0 Z M 2.546875 -4.8125 L 4.125 -4.8125 C 4.675781 -4.8125 5.082031 -4.941406 5.34375 -5.203125 C 5.601562 -5.472656 5.734375 -5.832031 5.734375 -6.28125 C 5.734375 -6.707031 5.601562 -7.050781 5.34375 -7.3125 C 5.09375 -7.570312 4.679688 -7.703125 4.109375 -7.703125 L 2.546875 -7.703125 Z M 2.546875 -4.8125 "/></g></g></g><g fill="#2b4743" fill-opacity="1"><g transform="translate(323.362718, 201.649909)"><g><path d="M 0.890625 0 L 0.890625 -9.09375 L 6.828125 -9.09375 L 6.828125 -7.765625 L 2.546875 -7.765625 L 2.546875 -5.265625 L 6.4375 -5.265625 L 6.4375 -3.96875 L 2.546875 -3.96875 L 2.546875 -1.34375 L 6.828125 -1.34375 L 6.828125 0 Z M 0.890625 0 "/></g></g></g></svg>