<svg xmlns="http://www.w3.org/2000/svg" xmlns:xlink="http://www.w3.org/1999/xlink" width="500" zoomAndPan="magnify" viewBox="0 0 375 374.999991" height="500" preserveAspectRatio="xMidYMid meet" version="1.0"><path fill="#2b4743" d="M 197.292969 172.464844 L 200.941406 172.464844 L 200.941406 180.792969 L 197.292969 180.792969 Z M 197.292969 172.464844 " fill-opacity="1" fill-rule="nonzero"/><path fill="#2b4743" d="M 175.085938 155.414062 L 178.734375 155.414062 L 178.734375 163.742188 L 175.085938 163.742188 Z M 175.085938 155.414062 " fill-opacity="1" fill-rule="nonzero"/><path fill="#2b4743" d="M 197.292969 155.414062 L 200.941406 155.414062 L 200.941406 163.742188 L 197.292969 163.742188 Z M 197.292969 155.414062 " fill-opacity="1" fill-rule="nonzero"/><path fill="#2b4743" d="M 175.085938 172.464844 L 178.734375 172.464844 L 178.734375 180.792969 L 175.085938 180.792969 Z M 175.085938 172.464844 " fill-opacity="1" fill-rule="nonzero"/><path fill="#2b4743" d="M 172.160156 166.273438 L 203.882812 166.273438 L 203.882812 169.921875 L 172.160156 169.921875 Z M 172.160156 166.273438 " fill-opacity="1" fill-rule="nonzero"/><path fill="#2b4743" d="M 187.511719 138.171875 C 171.003906 138.171875 157.585938 151.605469 157.585938 168.097656 C 157.585938 184.589844 171.019531 198.019531 187.511719 198.019531 C 204.003906 198.019531 217.433594 184.589844 217.433594 168.097656 C 217.433594 151.605469 204.015625 138.171875 187.511719 138.171875 Z M 187.511719 194.386719 C 173.019531 194.386719 161.234375 182.589844 161.234375 168.097656 C 161.234375 153.605469 173.019531 141.820312 187.511719 141.820312 C 202.003906 141.820312 213.789062 153.605469 213.789062 168.097656 C 213.789062 182.589844 202.003906 194.386719 187.511719 194.386719 Z M 187.511719 194.386719 " fill-opacity="1" fill-rule="nonzero"/></svg>