<?xml version="1.0" encoding="UTF-8" standalone="no"?>
<svg
   width="1080"
   zoomAndPan="magnify"
   viewBox="0 0 810 809.999993"
   height="1080"
   preserveAspectRatio="xMidYMid meet"
   version="1.0"
   id="svg6"
   sodipodi:docname="Untitled design (2).svg"
   inkscape:version="1.3 (0e150ed, 2023-07-21)"
   inkscape:export-filename="Untitled design (2).png"
   inkscape:export-xdpi="96"
   inkscape:export-ydpi="96"
   xmlns:inkscape="http://www.inkscape.org/namespaces/inkscape"
   xmlns:sodipodi="http://sodipodi.sourceforge.net/DTD/sodipodi-0.dtd"
   xmlns="http://www.w3.org/2000/svg"
   xmlns:svg="http://www.w3.org/2000/svg">
  <defs
     id="defs6" />
  <sodipodi:namedview
     id="namedview6"
     pagecolor="#ffffff"
     bordercolor="#000000"
     borderopacity="0.25"
     inkscape:showpageshadow="2"
     inkscape:pageopacity="0.0"
     inkscape:pagecheckerboard="0"
     inkscape:deskcolor="#d1d1d1"
     inkscape:zoom="0.21851852"
     inkscape:cx="540"
     inkscape:cy="540"
     inkscape:window-width="1680"
     inkscape:window-height="943"
     inkscape:window-x="0"
     inkscape:window-y="25"
     inkscape:window-maximized="1"
     inkscape:current-layer="svg6" />
  <path
     fill="#2b4743"
     d="M 536.378906 465.042969 L 585.398438 465.042969 L 585.398438 576.984375 L 536.378906 576.984375 Z M 536.378906 465.042969 "
     fill-opacity="1"
     fill-rule="nonzero"
     id="path1" />
  <path
     fill="#2b4743"
     d="M 237.871094 235.859375 L 286.890625 235.859375 L 286.890625 347.796875 L 237.871094 347.796875 Z M 237.871094 235.859375 "
     fill-opacity="1"
     fill-rule="nonzero"
     id="path2" />
  <path
     fill="#2b4743"
     d="M 536.378906 235.859375 L 585.398438 235.859375 L 585.398438 347.796875 L 536.378906 347.796875 Z M 536.378906 235.859375 "
     fill-opacity="1"
     fill-rule="nonzero"
     id="path3" />
  <path
     fill="#2b4743"
     d="M 237.871094 465.042969 L 286.890625 465.042969 L 286.890625 576.984375 L 237.871094 576.984375 Z M 237.871094 465.042969 "
     fill-opacity="1"
     fill-rule="nonzero"
     id="path4" />
  <path
     fill="#2b4743"
     d="M 198.546875 381.820312 L 624.90625 381.820312 L 624.90625 430.839844 L 198.546875 430.839844 Z M 198.546875 381.820312 "
     fill-opacity="1"
     fill-rule="nonzero"
     id="path5" />
  <path
     fill="#2b4743"
     d="M 404.867188 4.113281 C 182.996094 4.113281 2.648438 184.644531 2.648438 406.328125 C 2.648438 628.015625 183.179688 808.546875 404.867188 808.546875 C 626.550781 808.546875 807.082031 628.015625 807.082031 406.328125 C 807.082031 184.644531 626.734375 4.113281 404.867188 4.113281 Z M 404.867188 759.707031 C 210.066406 759.707031 51.667969 601.125 51.667969 406.328125 C 51.667969 211.53125 210.066406 53.132812 404.867188 53.132812 C 599.664062 53.132812 758.0625 211.53125 758.0625 406.328125 C 758.0625 601.125 599.664062 759.707031 404.867188 759.707031 Z M 404.867188 759.707031 "
     fill-opacity="1"
     fill-rule="nonzero"
     id="path6" />
  <path
     style="fill:#f6eddc;fill-opacity:1;stroke-width:4.57627"
     d="M 466.77966,1004.3962 C 286.75283,976.28865 135.20944,838.77445 86.127477,658.98305 76.826458,624.91262 75.546417,610.14499 75.81418,540 76.180452,444.04926 82.856782,413.91811 120.93675,336.35593 181.20493,213.60028 290.82353,123.74324 423.30508,88.497256 462.82082,77.984312 478.43826,76.286302 537.71186,76.058342 c 56.28114,-0.216451 75.90277,1.5604 108.9472,9.865792 111.31574,27.978096 210.36245,94.635396 274.52973,184.755356 28.16581,39.55753 59.33241,106.0071 72.65865,154.91373 9.28096,34.06067 10.55846,48.85814 10.27176,118.98305 -0.3,73.399 -1.3639,83.52313 -12.74409,121.27119 -24.64167,81.73659 -58.83785,140.41547 -116.96254,200.7018 -73.77489,76.51846 -161.7721,122.25032 -265.7685,138.11904 -52.08232,7.9471 -89.68313,7.875 -141.86441,-0.2721 z M 384.40678,695.59322 v -77.79661 h -34.32203 -34.32204 v 77.79661 77.79661 h 34.32204 34.32203 z m 398.13559,0 v -77.79661 h -34.32203 -34.32203 v 77.79661 77.79661 h 34.32203 34.32203 z M 837.45763,542.28814 V 507.9661 H 549.15254 260.84746 v 34.32204 34.32203 H 549.15254 837.45763 Z M 384.40678,388.98305 v -77.79661 h -34.32203 -34.32204 v 77.79661 77.79661 h 34.32204 34.32203 z m 398.13559,0 v -77.79661 h -34.32203 -34.32203 v 77.79661 77.79661 h 34.32203 34.32203 z"
     id="path7"
     transform="scale(0.75)" />
</svg>
