<svg xmlns="http://www.w3.org/2000/svg" xmlns:xlink="http://www.w3.org/1999/xlink" width="500" zoomAndPan="magnify" viewBox="0 0 375 374.999991" height="500" preserveAspectRatio="xMidYMid meet" version="1.0"><path fill="#2b4743" d="M 43.816406 38.511719 L 47.464844 38.511719 L 47.464844 46.839844 L 43.816406 46.839844 Z M 43.816406 38.511719 " fill-opacity="1" fill-rule="nonzero"/><path fill="#2b4743" d="M 21.609375 21.460938 L 25.257812 21.460938 L 25.257812 29.789062 L 21.609375 29.789062 Z M 21.609375 21.460938 " fill-opacity="1" fill-rule="nonzero"/><path fill="#2b4743" d="M 43.816406 21.460938 L 47.464844 21.460938 L 47.464844 29.789062 L 43.816406 29.789062 Z M 43.816406 21.460938 " fill-opacity="1" fill-rule="nonzero"/><path fill="#2b4743" d="M 21.609375 38.511719 L 25.257812 38.511719 L 25.257812 46.839844 L 21.609375 46.839844 Z M 21.609375 38.511719 " fill-opacity="1" fill-rule="nonzero"/><path fill="#2b4743" d="M 18.683594 32.320312 L 50.402344 32.320312 L 50.402344 35.964844 L 18.683594 35.964844 Z M 18.683594 32.320312 " fill-opacity="1" fill-rule="nonzero"/><path fill="#2b4743" d="M 34.03125 4.21875 C 17.527344 4.21875 4.109375 17.648438 4.109375 34.140625 C 4.109375 50.632812 17.539062 64.066406 34.03125 64.066406 C 50.527344 64.066406 63.957031 50.632812 63.957031 34.140625 C 63.957031 17.648438 50.539062 4.21875 34.03125 4.21875 Z M 34.03125 60.433594 C 19.539062 60.433594 7.757812 48.632812 7.757812 34.140625 C 7.757812 19.648438 19.539062 7.867188 34.03125 7.867188 C 48.527344 7.867188 60.308594 19.648438 60.308594 34.140625 C 60.308594 48.632812 48.527344 60.433594 34.03125 60.433594 Z M 34.03125 60.433594 " fill-opacity="1" fill-rule="nonzero"/></svg>